<?xml version="1.0" encoding="UTF-8" standalone="no"?><!DOCTYPE svg PUBLIC "-//W3C//DTD SVG 1.1//EN" "http://www.w3.org/Graphics/SVG/1.1/DTD/svg11.dtd"><svg width="100%" height="100%" viewBox="0 0 357 282" version="1.1" xmlns="http://www.w3.org/2000/svg" xmlns:xlink="http://www.w3.org/1999/xlink" xml:space="preserve" xmlns:serif="http://www.serif.com/" style="fill-rule:evenodd;clip-rule:evenodd;stroke-linejoin:round;stroke-miterlimit:1.41421;"><rect id="_1500" serif:id="1500" x="0" y="0" width="357" height="282" style="fill:none;"/><path d="M357,0l0,282l-357,0l0,-282l357,0Zm-111.75,225.75l0,-0.001l0.375,0.001c46.568,0 84.375,-37.807 84.375,-84.375c0,-46.568 -37.807,-84.375 -84.375,-84.375l-0.375,0.001l0,-0.001l-132,0l0,0.001l-0.375,-0.001c-46.568,0 -84.375,37.807 -84.375,84.375c0,46.568 37.807,84.375 84.375,84.375l0.375,-0.001l0,0.001l132,0Z"/></svg>