<?xml version="1.0" encoding="UTF-8" standalone="no"?><!DOCTYPE svg PUBLIC "-//W3C//DTD SVG 1.1//EN" "http://www.w3.org/Graphics/SVG/1.1/DTD/svg11.dtd"><svg width="100%" height="100%" viewBox="0 0 357 282" version="1.1" xmlns="http://www.w3.org/2000/svg" xmlns:xlink="http://www.w3.org/1999/xlink" xml:space="preserve" xmlns:serif="http://www.serif.com/" style="fill-rule:evenodd;clip-rule:evenodd;stroke-linejoin:round;stroke-miterlimit:1.41421;"><rect id="_1600" serif:id="1600" x="0" y="0" width="357" height="282" style="fill:none;"/><path d="M357,0l0,282l-357,0l0,-282l357,0Zm-85.547,102.75c-10.197,-24.727 -29.977,-44.507 -54.703,-54.703l0,-32.297l-76.5,0l0,32.297c-24.726,10.196 -44.507,29.977 -54.703,54.703l-33.047,0l0,76.5l33.047,0c10.196,24.726 29.977,44.507 54.703,54.703l0,32.297l76.5,0l0,-32.297c24.726,-10.196 44.506,-29.977 54.703,-54.703l33.047,0l0,-76.5l-33.047,0Z"/></svg>