<?xml version="1.0" encoding="UTF-8" standalone="no"?><!DOCTYPE svg PUBLIC "-//W3C//DTD SVG 1.1//EN" "http://www.w3.org/Graphics/SVG/1.1/DTD/svg11.dtd"><svg width="100%" height="100%" viewBox="0 0 357 282" version="1.1" xmlns="http://www.w3.org/2000/svg" xmlns:xlink="http://www.w3.org/1999/xlink" xml:space="preserve" xmlns:serif="http://www.serif.com/" style="fill-rule:evenodd;clip-rule:evenodd;stroke-linejoin:round;stroke-miterlimit:1.41421;"><rect id="_1840" serif:id="1840" x="0" y="0" width="357" height="282" style="fill:none;"/><clipPath id="_clip1"><rect x="0" y="0" width="357" height="282"/></clipPath><g clip-path="url(#_clip1)"><circle cx="156.75" cy="131.25" r="31.5"/><path d="M357,0l0,282l-357,0l0,-282l357,0Zm-325.5,62.25l38.25,0c0,0 -3.561,15.535 4.5,39c8.162,23.758 19.5,33 19.5,33c0,0 -3.252,-19.946 8.25,-39.75c5.594,-9.632 14.25,-18.5 23.25,-24c9,-5.5 20.865,-8.757 30.75,-9c11.205,-0.275 20.25,2.375 28.5,6c8.011,3.52 15.5,9.625 21,15.75c5.387,5.999 9.375,14.5 12,21c2.295,5.683 3.251,11.891 3.75,18c0.5,6.125 -0.75,18 -0.75,18c0,0 9.583,-10.052 13.5,-15.75c4.125,-6 8.5,-13.375 11.25,-20.25c2.68,-6.699 4.25,-14 5.25,-21c0.991,-6.934 0.75,-21 0.75,-21l75.75,0c0,0 0.355,23.531 -3,37.5c-3.109,12.946 -8,28.25 -14.25,40.5c-6.115,11.986 -14.5,23.5 -23.25,33c-8.544,9.277 -18.456,17.476 -29.25,24c-11.375,6.875 -25.875,13.5 -39,17.25c-12.851,3.672 -26.393,5.703 -39.75,5.25c-14.75,-0.5 -33.25,-2.75 -48.75,-8.25c-15.5,-5.5 -32,-15.25 -44.25,-24.75c-11.468,-8.894 -21.25,-20.25 -29.25,-32.25c-8,-12 -15.174,-25.543 -18.75,-39.75c-9.73,-38.656 -6,-52.5 -6,-52.5Z"/></g></svg>