<?xml version="1.0" encoding="UTF-8" standalone="no"?><!DOCTYPE svg PUBLIC "-//W3C//DTD SVG 1.1//EN" "http://www.w3.org/Graphics/SVG/1.1/DTD/svg11.dtd"><svg width="100%" height="100%" viewBox="0 0 396 282" version="1.1" xmlns="http://www.w3.org/2000/svg" xmlns:xlink="http://www.w3.org/1999/xlink" xml:space="preserve" xmlns:serif="http://www.serif.com/" style="fill-rule:evenodd;clip-rule:evenodd;stroke-linejoin:round;stroke-miterlimit:1.41421;"><rect id="_3115" serif:id="3115" x="0" y="0" width="396" height="282" style="fill:none;"/><clipPath id="_clip1"><rect x="0" y="0" width="396" height="282"/></clipPath><g clip-path="url(#_clip1)"><path d="M315.476,195.37l-15.739,-102.939l7.997,0l9.007,67.479c0.951,6.929 1.788,13.95 2.51,21.066l2.651,-19.029l11.242,-69.516l9.495,0l8.428,52.102c2.058,12.686 3.593,24.833 4.606,36.443c0.754,-6.694 1.722,-14.161 2.904,-22.4l9.3,-66.145l7.865,0l-16.242,102.939l-7.514,0l-12.484,-78.433l-1.868,-12.077c-0.557,4.494 -1.131,8.519 -1.721,12.077l-12.533,78.433l-7.904,0Z" style="fill-rule:nonzero;"/><g><path d="M141.456,0.001l0.455,0.002l0.455,0.003l0.455,0.006l0.455,0.006l0.454,0.008l0.454,0.009l0.453,0.011l0.453,0.012l0.453,0.014l0.452,0.015l0.452,0.016l0.452,0.018l0.451,0.02l0.451,0.02l0.45,0.023l0.45,0.023l0.45,0.025l0.45,0.027l0.449,0.027l0.448,0.03l0.449,0.03l0.447,0.032l0.448,0.033l0.447,0.035l0.447,0.036l0.446,0.038l0.446,0.039l0.446,0.04l0.445,0.042l0.444,0.043l0.445,0.045l0.444,0.045l0.443,0.048l0.443,0.048l0.443,0.05l0.442,0.052l0.442,0.052l0.442,0.054l0.441,0.056l0.44,0.057l0.441,0.058l0.439,0.059l0.44,0.061l0.439,0.062l0.438,0.064l0.438,0.065l0.438,0.066l0.437,0.067l0.437,0.069l0.436,0.071l0.436,0.071l0.435,0.073l0.435,0.074l0.435,0.076l0.434,0.077l0.433,0.078l0.433,0.08l0.433,0.081l0.432,0.082l0.432,0.083l0.431,0.085l0.431,0.086l0.43,0.088l0.43,0.089l0.43,0.09l0.429,0.091l0.428,0.093l0.428,0.094l0.427,0.095l0.427,0.096l0.427,0.098l0.426,0.099l0.425,0.101l0.425,0.102l0.425,0.103l0.424,0.104l0.423,0.105l0.423,0.107l0.423,0.108l0.422,0.11l0.421,0.11l0.421,0.112l0.421,0.113l0.419,0.115l0.42,0.116l0.419,0.117l0.418,0.118l0.418,0.119l0.417,0.121l0.417,0.122l0.416,0.123l0.416,0.125l0.415,0.125l0.415,0.127l0.414,0.129l0.413,0.129l0.413,0.131l0.413,0.132l0.412,0.133l0.411,0.134l0.411,0.136l0.41,0.137l0.41,0.138l0.409,0.139l0.408,0.14l0.408,0.142l0.408,0.143l0.407,0.144l0.406,0.145l0.406,0.147l0.405,0.148l0.404,0.149l0.404,0.15l0.404,0.151l0.402,0.153l0.403,0.153l0.401,0.155l0.401,0.156l0.401,0.158l0.4,0.158l0.399,0.16l0.398,0.161l0.398,0.162l0.398,0.163l0.397,0.165l0.396,0.165l0.396,0.167l0.395,0.168l0.394,0.169l0.394,0.17l0.393,0.171l0.392,0.173l0.392,0.174l0.392,0.175l0.39,0.176l0.39,0.177l0.39,0.178l0.388,0.18l0.389,0.18l0.387,0.182l0.387,0.183l0.386,0.184l0.386,0.185l0.385,0.186l0.384,0.188l0.383,0.188l0.383,0.19l0.383,0.191l0.381,0.192l0.381,0.193l0.381,0.194l0.379,0.195l0.379,0.197l0.378,0.197l0.378,0.199l0.377,0.2l0.376,0.2l0.376,0.202l0.375,0.203l0.374,0.205l0.374,0.205l0.373,0.206l0.372,0.208l0.371,0.208l0.371,0.21l0.37,0.21l0.37,0.212l0.368,0.213l0.368,0.214l0.368,0.215l0.366,0.216l0.366,0.217l0.365,0.218l0.365,0.22l0.363,0.22l0.364,0.222l0.362,0.222l0.361,0.224l0.361,0.224l0.36,0.226l0.36,0.227l0.359,0.227l0.358,0.229l0.357,0.23l0.356,0.231l0.356,0.232l0.355,0.233l0.354,0.234l0.354,0.235l0.353,0.236l0.352,0.237l0.351,0.238l0.35,0.24l0.35,0.24l0.349,0.241l0.348,0.242l0.348,0.244l0.347,0.244l0.345,0.245l0.346,0.247l0.344,0.247l0.344,0.248l0.343,0.25l0.342,0.25l0.341,0.251l0.34,0.253l0.34,0.253l0.339,0.254l0.338,0.256l0.338,0.256l0.336,0.257l0.336,0.259l0.335,0.259l0.334,0.26l0.334,0.261l0.332,0.263l0.332,0.263l0.331,0.264l0.33,0.265l0.329,0.266l0.329,0.267l0.328,0.268l0.326,0.269l0.327,0.27l0.325,0.271l0.324,0.272l0.324,0.273l0.323,0.274l0.321,0.274l0.322,0.276l0.32,0.277l0.319,0.277l0.319,0.279l0.318,0.279l0.316,0.281l0.316,0.281l0.316,0.282l0.314,0.283l0.314,0.285l0.312,0.285l0.312,0.285l0.311,0.287l0.31,0.288l0.309,0.289l0.308,0.289l0.308,0.291l0.306,0.291l0.306,0.293l0.305,0.293l0.304,0.294l0.303,0.295l0.302,0.296l0.302,0.297l0.3,0.298l0.3,0.298l0.298,0.3l0.298,0.3l0.297,0.302l0.296,0.302l0.295,0.303l0.294,0.304l0.293,0.305l0.293,0.306l0.291,0.306l0.291,0.308l0.289,0.308l0.289,0.309l0.288,0.31l0.287,0.311l0.285,0.312l0.285,0.312l0.285,0.314l0.283,0.314l0.282,0.316l0.281,0.316l0.281,0.316l0.279,0.318l0.279,0.319l0.277,0.319l0.277,0.32l0.276,0.322l0.274,0.321l0.274,0.323l0.273,0.324l0.272,0.324l0.271,0.325l0.27,0.327l0.269,0.326l0.268,0.328l0.267,0.329l0.266,0.329l0.265,0.33l0.264,0.331l0.263,0.332l0.263,0.332l0.261,0.334l0.26,0.334l0.259,0.335l0.259,0.336l0.257,0.336l0.256,0.338l0.256,0.338l0.254,0.339l0.253,0.34l0.253,0.34l0.251,0.341l0.25,0.342l0.25,0.343l0.248,0.344l0.247,0.344l0.247,0.346l0.245,0.345l0.244,0.347l0.244,0.348l0.242,0.348l0.241,0.349l0.24,0.35l0.24,0.35l0.238,0.351l0.237,0.352l0.236,0.353l0.235,0.354l0.234,0.354l0.233,0.355l0.232,0.356l0.231,0.356l0.23,0.357l0.229,0.358l0.227,0.359l0.227,0.36l0.226,0.36l0.224,0.361l0.224,0.361l0.222,0.362l0.222,0.364l0.22,0.363l0.22,0.365l0.218,0.365l0.217,0.366l0.216,0.366l0.215,0.368l0.214,0.368l0.213,0.368l0.212,0.37l0.21,0.37l0.21,0.371l0.208,0.371l0.208,0.372l0.206,0.373l0.205,0.374l0.205,0.374l0.203,0.375l0.202,0.376l0.2,0.376l0.2,0.377l0.199,0.378l0.197,0.378l0.197,0.379l0.195,0.379l0.194,0.381l0.193,0.381l0.192,0.381l0.191,0.383l0.19,0.383l0.188,0.383l0.188,0.384l0.186,0.385l0.185,0.386l0.184,0.386l0.183,0.387l0.182,0.387l0.18,0.389l0.18,0.388l0.178,0.39l0.177,0.39l0.176,0.39l0.175,0.392l0.174,0.392l0.173,0.392l0.171,0.393l0.17,0.394l0.169,0.394l0.168,0.395l0.167,0.396l0.165,0.396l0.165,0.397l0.163,0.398l0.162,0.398l0.161,0.398l0.16,0.399l0.158,0.4l0.158,0.401l0.156,0.401l0.155,0.401l0.153,0.403l0.153,0.402l0.151,0.404l0.15,0.404l0.149,0.404l0.148,0.405l0.147,0.406l0.145,0.406l0.144,0.407l0.143,0.408l0.142,0.408l0.14,0.408l0.139,0.409l0.138,0.41l0.137,0.41l0.136,0.411l0.134,0.411l0.133,0.412l0.132,0.413l0.131,0.413l0.129,0.413l0.129,0.414l0.127,0.415l0.125,0.415l0.125,0.416l0.123,0.416l0.122,0.417l0.121,0.417l0.119,0.418l0.118,0.418l0.117,0.419l0.116,0.42l0.115,0.419l0.113,0.421l0.112,0.421l0.11,0.421l0.11,0.422l0.108,0.423l0.107,0.423l0.105,0.423l0.104,0.424l0.103,0.425l0.102,0.425l0.101,0.425l0.099,0.426l0.098,0.427l0.096,0.427l0.095,0.427l0.094,0.428l0.093,0.428l0.091,0.429l0.09,0.43l0.089,0.43l0.088,0.43l0.086,0.431l0.085,0.431l0.083,0.432l0.082,0.432l0.081,0.433l0.08,0.433l0.078,0.433l0.077,0.434l0.076,0.435l0.074,0.435l0.073,0.435l0.071,0.436l0.071,0.436l0.069,0.437l0.067,0.437l0.066,0.438l0.065,0.438l0.064,0.438l0.062,0.439l0.061,0.44l0.059,0.439l0.058,0.441l0.057,0.44l0.056,0.441l0.054,0.442l0.052,0.442l0.052,0.442l0.05,0.443l0.048,0.443l0.048,0.443l0.045,0.444l0.045,0.445l0.043,0.444l0.042,0.445l0.04,0.446l0.039,0.446l0.038,0.446l0.036,0.447l0.035,0.447l0.033,0.448l0.032,0.447l0.03,0.449l0.03,0.448l0.027,0.449l0.027,0.45l0.025,0.45l0.023,0.45l0.023,0.45l0.02,0.451l0.02,0.451l0.018,0.452l0.016,0.452l0.015,0.452l0.014,0.453l0.012,0.453l0.011,0.453l0.009,0.454l0.008,0.454l0.006,0.455l0.006,0.455l0.003,0.455l0.002,0.455l0.001,0.456l-0.001,0.456l-0.002,0.455l-0.003,0.455l-0.006,0.455l-0.006,0.455l-0.008,0.454l-0.009,0.454l-0.011,0.453l-0.012,0.453l-0.014,0.453l-0.015,0.452l-0.016,0.452l-0.018,0.452l-0.02,0.451l-0.02,0.451l-0.023,0.45l-0.023,0.45l-0.025,0.45l-0.027,0.45l-0.027,0.449l-0.03,0.448l-0.03,0.449l-0.032,0.447l-0.033,0.448l-0.035,0.447l-0.036,0.447l-0.038,0.446l-0.039,0.446l-0.04,0.446l-0.042,0.445l-0.043,0.444l-0.045,0.445l-0.045,0.444l-0.048,0.443l-0.048,0.443l-0.05,0.443l-0.052,0.442l-0.052,0.442l-0.054,0.442l-0.056,0.441l-0.057,0.44l-0.058,0.441l-0.059,0.439l-0.061,0.44l-0.062,0.439l-0.064,0.438l-0.065,0.438l-0.066,0.438l-0.067,0.437l-0.069,0.437l-0.071,0.436l-0.071,0.436l-0.073,0.435l-0.074,0.435l-0.076,0.435l-0.077,0.434l-0.078,0.433l-0.08,0.433l-0.081,0.433l-0.082,0.432l-0.083,0.432l-0.085,0.431l-0.086,0.431l-0.088,0.43l-0.089,0.43l-0.09,0.43l-0.091,0.429l-0.093,0.428l-0.094,0.428l-0.095,0.427l-0.096,0.427l-0.098,0.427l-0.099,0.426l-0.101,0.425l-0.102,0.425l-0.103,0.425l-0.104,0.424l-0.105,0.423l-0.107,0.423l-0.108,0.423l-0.11,0.422l-0.11,0.421l-0.112,0.421l-0.113,0.421l-0.115,0.419l-0.116,0.42l-0.117,0.419l-0.118,0.418l-0.119,0.418l-0.121,0.417l-0.122,0.417l-0.123,0.416l-0.125,0.416l-0.125,0.415l-0.127,0.415l-0.129,0.414l-0.129,0.413l-0.131,0.413l-0.132,0.413l-0.133,0.412l-0.134,0.411l-0.136,0.411l-0.137,0.41l-0.138,0.41l-0.139,0.409l-0.14,0.408l-0.142,0.408l-0.143,0.408l-0.144,0.407l-0.145,0.406l-0.147,0.406l-0.148,0.405l-0.149,0.404l-0.15,0.404l-0.151,0.404l-0.153,0.402l-0.153,0.403l-0.155,0.401l-0.156,0.401l-0.158,0.401l-0.158,0.4l-0.16,0.399l-0.161,0.398l-0.162,0.398l-0.163,0.398l-0.165,0.397l-0.165,0.396l-0.167,0.396l-0.168,0.395l-0.169,0.394l-0.17,0.394l-0.171,0.393l-0.173,0.392l-0.174,0.392l-0.175,0.392l-0.176,0.39l-0.177,0.39l-0.178,0.39l-0.18,0.388l-0.18,0.389l-0.182,0.387l-0.183,0.387l-0.184,0.386l-0.185,0.386l-0.186,0.385l-0.188,0.384l-0.188,0.383l-0.19,0.383l-0.191,0.383l-0.192,0.381l-0.193,0.381l-0.194,0.381l-0.195,0.379l-0.197,0.379l-0.197,0.378l-0.199,0.378l-0.2,0.377l-0.2,0.376l-0.202,0.376l-0.203,0.375l-0.205,0.374l-0.205,0.374l-0.206,0.373l-0.208,0.372l-0.208,0.371l-0.21,0.371l-0.21,0.37l-0.212,0.37l-0.213,0.368l-0.214,0.368l-0.215,0.368l-0.216,0.366l-0.217,0.366l-0.218,0.365l-0.22,0.365l-0.22,0.363l-0.222,0.364l-0.222,0.362l-0.224,0.361l-0.224,0.361l-0.226,0.36l-0.227,0.36l-0.227,0.359l-0.229,0.358l-0.23,0.357l-0.231,0.356l-0.232,0.356l-0.233,0.355l-0.234,0.354l-0.235,0.354l-0.236,0.353l-0.237,0.352l-0.238,0.351l-0.24,0.35l-0.24,0.35l-0.241,0.349l-0.242,0.348l-0.244,0.348l-0.244,0.347l-0.245,0.345l-0.247,0.346l-0.247,0.344l-0.248,0.344l-0.25,0.343l-0.25,0.342l-0.251,0.341l-0.253,0.34l-0.253,0.34l-0.254,0.339l-0.256,0.338l-0.256,0.338l-0.257,0.336l-0.259,0.336l-0.259,0.335l-0.26,0.334l-0.261,0.334l-0.263,0.332l-0.263,0.332l-0.264,0.331l-0.265,0.33l-0.266,0.329l-0.267,0.329l-0.268,0.328l-0.269,0.326l-0.27,0.327l-0.271,0.325l-0.272,0.324l-0.273,0.324l-0.274,0.323l-0.274,0.321l-0.276,0.322l-0.277,0.32l-0.277,0.319l-0.279,0.319l-0.279,0.318l-0.281,0.316l-0.281,0.316l-0.282,0.316l-0.283,0.314l-0.285,0.314l-0.285,0.312l-0.285,0.312l-0.287,0.311l-0.288,0.31l-0.289,0.309l-0.289,0.308l-0.291,0.308l-0.291,0.306l-0.293,0.306l-0.293,0.305l-0.294,0.304l-0.295,0.303l-0.296,0.302l-0.297,0.302l-0.298,0.3l-0.298,0.3l-0.3,0.298l-0.3,0.298l-0.302,0.297l-0.302,0.296l-0.303,0.295l-0.304,0.294l-0.305,0.293l-0.306,0.293l-0.306,0.291l-0.308,0.291l-0.308,0.289l-0.309,0.289l-0.31,0.288l-0.311,0.287l-0.312,0.285l-0.312,0.285l-0.314,0.285l-0.314,0.283l-0.316,0.282l-0.316,0.281l-0.316,0.281l-0.318,0.279l-0.319,0.279l-0.319,0.277l-0.32,0.277l-0.322,0.276l-0.321,0.274l-0.323,0.274l-0.324,0.273l-0.324,0.272l-0.325,0.271l-0.327,0.27l-0.326,0.269l-0.328,0.268l-0.329,0.267l-0.329,0.266l-0.33,0.265l-0.331,0.264l-0.332,0.263l-0.332,0.263l-0.334,0.261l-0.334,0.26l-0.335,0.259l-0.336,0.259l-0.336,0.257l-0.338,0.256l-0.338,0.256l-0.339,0.254l-0.34,0.253l-0.34,0.253l-0.341,0.251l-0.342,0.25l-0.343,0.25l-0.344,0.248l-0.344,0.247l-0.346,0.247l-0.345,0.245l-0.347,0.244l-0.348,0.244l-0.348,0.242l-0.349,0.241l-0.35,0.24l-0.35,0.24l-0.351,0.238l-0.352,0.237l-0.353,0.236l-0.354,0.235l-0.354,0.234l-0.355,0.233l-0.356,0.232l-0.356,0.231l-0.357,0.23l-0.358,0.229l-0.359,0.227l-0.36,0.227l-0.36,0.226l-0.361,0.224l-0.361,0.224l-0.362,0.222l-0.364,0.222l-0.363,0.22l-0.365,0.22l-0.365,0.218l-0.366,0.217l-0.366,0.216l-0.368,0.215l-0.368,0.214l-0.368,0.213l-0.37,0.212l-0.37,0.21l-0.371,0.21l-0.371,0.208l-0.372,0.208l-0.373,0.206l-0.374,0.205l-0.374,0.205l-0.375,0.203l-0.376,0.202l-0.376,0.2l-0.377,0.2l-0.378,0.199l-0.378,0.197l-0.379,0.197l-0.379,0.195l-0.381,0.194l-0.381,0.193l-0.381,0.192l-0.383,0.191l-0.383,0.19l-0.383,0.188l-0.384,0.188l-0.385,0.186l-0.386,0.185l-0.386,0.184l-0.387,0.183l-0.387,0.182l-0.389,0.18l-0.388,0.18l-0.39,0.178l-0.39,0.177l-0.39,0.176l-0.392,0.175l-0.392,0.174l-0.392,0.173l-0.393,0.171l-0.394,0.17l-0.394,0.169l-0.395,0.168l-0.396,0.167l-0.396,0.165l-0.397,0.165l-0.398,0.163l-0.398,0.162l-0.398,0.161l-0.399,0.16l-0.4,0.158l-0.401,0.158l-0.401,0.156l-0.401,0.155l-0.403,0.153l-0.402,0.153l-0.404,0.151l-0.404,0.15l-0.404,0.149l-0.405,0.148l-0.406,0.147l-0.406,0.145l-0.407,0.144l-0.408,0.143l-0.408,0.142l-0.408,0.14l-0.409,0.139l-0.41,0.138l-0.41,0.137l-0.411,0.136l-0.411,0.134l-0.412,0.133l-0.413,0.132l-0.413,0.131l-0.413,0.129l-0.414,0.129l-0.415,0.127l-0.415,0.125l-0.416,0.125l-0.416,0.123l-0.417,0.122l-0.417,0.121l-0.418,0.119l-0.418,0.118l-0.419,0.117l-0.42,0.116l-0.419,0.115l-0.421,0.113l-0.421,0.112l-0.421,0.11l-0.422,0.11l-0.423,0.108l-0.423,0.107l-0.423,0.105l-0.424,0.104l-0.425,0.103l-0.425,0.102l-0.425,0.101l-0.426,0.099l-0.427,0.098l-0.427,0.096l-0.427,0.095l-0.428,0.094l-0.428,0.093l-0.429,0.091l-0.43,0.09l-0.43,0.089l-0.43,0.088l-0.431,0.086l-0.431,0.085l-0.432,0.083l-0.432,0.082l-0.433,0.081l-0.433,0.08l-0.433,0.078l-0.434,0.077l-0.435,0.076l-0.435,0.074l-0.435,0.073l-0.436,0.071l-0.436,0.071l-0.437,0.069l-0.437,0.067l-0.438,0.066l-0.438,0.065l-0.438,0.064l-0.439,0.062l-0.44,0.061l-0.439,0.059l-0.441,0.058l-0.44,0.057l-0.441,0.056l-0.442,0.054l-0.442,0.052l-0.442,0.052l-0.443,0.05l-0.443,0.048l-0.443,0.048l-0.444,0.045l-0.445,0.045l-0.444,0.043l-0.445,0.042l-0.446,0.04l-0.446,0.039l-0.446,0.038l-0.447,0.036l-0.447,0.035l-0.448,0.033l-0.447,0.032l-0.449,0.03l-0.448,0.03l-0.449,0.027l-0.45,0.027l-0.45,0.025l-0.45,0.023l-0.45,0.023l-0.451,0.02l-0.451,0.02l-0.452,0.018l-0.452,0.016l-0.452,0.015l-0.453,0.014l-0.453,0.012l-0.453,0.011l-0.454,0.009l-0.454,0.008l-0.455,0.006l-0.455,0.006l-0.455,0.003l-0.455,0.002l-0.456,0.001l-0.456,-0.001l-0.455,-0.002l-0.455,-0.003l-0.455,-0.006l-0.455,-0.006l-0.454,-0.008l-0.454,-0.009l-0.453,-0.011l-0.453,-0.012l-0.453,-0.014l-0.452,-0.015l-0.452,-0.016l-0.452,-0.018l-0.451,-0.02l-0.451,-0.02l-0.45,-0.023l-0.45,-0.023l-0.45,-0.025l-0.45,-0.027l-0.449,-0.027l-0.448,-0.03l-0.449,-0.03l-0.447,-0.032l-0.448,-0.033l-0.447,-0.035l-0.447,-0.036l-0.446,-0.038l-0.446,-0.039l-0.446,-0.04l-0.445,-0.042l-0.444,-0.043l-0.445,-0.045l-0.444,-0.045l-0.443,-0.048l-0.443,-0.048l-0.443,-0.05l-0.442,-0.052l-0.442,-0.052l-0.442,-0.054l-0.441,-0.056l-0.44,-0.057l-0.441,-0.058l-0.439,-0.059l-0.44,-0.061l-0.439,-0.062l-0.438,-0.064l-0.438,-0.065l-0.438,-0.066l-0.437,-0.067l-0.437,-0.069l-0.436,-0.071l-0.436,-0.071l-0.435,-0.073l-0.435,-0.074l-0.435,-0.076l-0.434,-0.077l-0.433,-0.078l-0.433,-0.08l-0.433,-0.081l-0.432,-0.082l-0.432,-0.083l-0.431,-0.085l-0.431,-0.086l-0.43,-0.088l-0.43,-0.089l-0.43,-0.09l-0.429,-0.091l-0.428,-0.093l-0.428,-0.094l-0.427,-0.095l-0.427,-0.096l-0.427,-0.098l-0.426,-0.099l-0.425,-0.101l-0.425,-0.102l-0.425,-0.103l-0.424,-0.104l-0.423,-0.105l-0.423,-0.107l-0.423,-0.108l-0.422,-0.11l-0.421,-0.11l-0.421,-0.112l-0.421,-0.113l-0.419,-0.115l-0.42,-0.116l-0.419,-0.117l-0.418,-0.118l-0.418,-0.119l-0.417,-0.121l-0.417,-0.122l-0.416,-0.123l-0.416,-0.125l-0.415,-0.125l-0.415,-0.127l-0.414,-0.129l-0.413,-0.129l-0.413,-0.131l-0.413,-0.132l-0.412,-0.133l-0.411,-0.134l-0.411,-0.136l-0.41,-0.137l-0.41,-0.138l-0.409,-0.139l-0.408,-0.14l-0.408,-0.142l-0.408,-0.143l-0.407,-0.144l-0.406,-0.145l-0.406,-0.147l-0.405,-0.148l-0.404,-0.149l-0.404,-0.15l-0.404,-0.151l-0.402,-0.153l-0.403,-0.153l-0.401,-0.155l-0.401,-0.156l-0.401,-0.158l-0.4,-0.158l-0.399,-0.16l-0.398,-0.161l-0.398,-0.162l-0.398,-0.163l-0.397,-0.165l-0.396,-0.165l-0.396,-0.167l-0.395,-0.168l-0.394,-0.169l-0.394,-0.17l-0.393,-0.171l-0.392,-0.173l-0.392,-0.174l-0.392,-0.175l-0.39,-0.176l-0.39,-0.177l-0.39,-0.178l-0.388,-0.18l-0.389,-0.18l-0.387,-0.182l-0.387,-0.183l-0.386,-0.184l-0.386,-0.185l-0.385,-0.186l-0.384,-0.188l-0.383,-0.188l-0.383,-0.19l-0.383,-0.191l-0.381,-0.192l-0.381,-0.193l-0.381,-0.194l-0.379,-0.195l-0.379,-0.197l-0.378,-0.197l-0.378,-0.199l-0.377,-0.2l-0.376,-0.2l-0.376,-0.202l-0.375,-0.203l-0.374,-0.205l-0.374,-0.205l-0.373,-0.206l-0.372,-0.208l-0.371,-0.208l-0.371,-0.21l-0.37,-0.21l-0.37,-0.212l-0.368,-0.213l-0.368,-0.214l-0.368,-0.215l-0.366,-0.216l-0.366,-0.217l-0.365,-0.218l-0.365,-0.22l-0.363,-0.22l-0.364,-0.222l-0.362,-0.222l-0.361,-0.224l-0.361,-0.224l-0.36,-0.226l-0.36,-0.227l-0.359,-0.227l-0.358,-0.229l-0.357,-0.23l-0.356,-0.231l-0.356,-0.232l-0.355,-0.233l-0.354,-0.234l-0.354,-0.235l-0.353,-0.236l-0.352,-0.237l-0.351,-0.238l-0.35,-0.24l-0.35,-0.24l-0.349,-0.241l-0.348,-0.242l-0.348,-0.244l-0.347,-0.244l-0.345,-0.245l-0.346,-0.247l-0.344,-0.247l-0.344,-0.248l-0.343,-0.25l-0.342,-0.25l-0.341,-0.251l-0.34,-0.253l-0.34,-0.253l-0.339,-0.254l-0.338,-0.256l-0.338,-0.256l-0.336,-0.257l-0.336,-0.259l-0.335,-0.259l-0.334,-0.26l-0.334,-0.261l-0.332,-0.263l-0.332,-0.263l-0.331,-0.264l-0.33,-0.265l-0.329,-0.266l-0.329,-0.267l-0.328,-0.268l-0.326,-0.269l-0.327,-0.27l-0.325,-0.271l-0.324,-0.272l-0.324,-0.273l-0.323,-0.274l-0.321,-0.274l-0.322,-0.276l-0.32,-0.277l-0.319,-0.277l-0.319,-0.279l-0.318,-0.279l-0.316,-0.281l-0.316,-0.281l-0.316,-0.282l-0.314,-0.283l-0.314,-0.285l-0.312,-0.285l-0.312,-0.285l-0.311,-0.287l-0.31,-0.288l-0.309,-0.289l-0.308,-0.289l-0.308,-0.291l-0.306,-0.291l-0.306,-0.293l-0.305,-0.293l-0.304,-0.294l-0.303,-0.295l-0.302,-0.296l-0.302,-0.297l-0.3,-0.298l-0.3,-0.298l-0.298,-0.3l-0.298,-0.3l-0.297,-0.302l-0.296,-0.302l-0.295,-0.303l-0.294,-0.304l-0.293,-0.305l-0.293,-0.306l-0.291,-0.306l-0.291,-0.308l-0.289,-0.308l-0.289,-0.309l-0.288,-0.31l-0.287,-0.311l-0.285,-0.312l-0.285,-0.312l-0.285,-0.314l-0.283,-0.314l-0.282,-0.316l-0.281,-0.316l-0.281,-0.316l-0.279,-0.318l-0.279,-0.319l-0.277,-0.319l-0.277,-0.32l-0.276,-0.322l-0.274,-0.321l-0.274,-0.323l-0.273,-0.324l-0.272,-0.324l-0.271,-0.325l-0.27,-0.327l-0.269,-0.326l-0.268,-0.328l-0.267,-0.329l-0.266,-0.329l-0.265,-0.33l-0.264,-0.331l-0.263,-0.332l-0.263,-0.332l-0.261,-0.334l-0.26,-0.334l-0.259,-0.335l-0.259,-0.336l-0.257,-0.336l-0.256,-0.338l-0.256,-0.338l-0.254,-0.339l-0.253,-0.34l-0.253,-0.34l-0.251,-0.341l-0.25,-0.342l-0.25,-0.343l-0.248,-0.344l-0.247,-0.344l-0.247,-0.346l-0.245,-0.345l-0.244,-0.347l-0.244,-0.348l-0.242,-0.348l-0.241,-0.349l-0.24,-0.35l-0.24,-0.35l-0.238,-0.351l-0.237,-0.352l-0.236,-0.353l-0.235,-0.354l-0.234,-0.354l-0.233,-0.355l-0.232,-0.356l-0.231,-0.356l-0.23,-0.357l-0.229,-0.358l-0.227,-0.359l-0.227,-0.36l-0.226,-0.36l-0.224,-0.361l-0.224,-0.361l-0.222,-0.362l-0.222,-0.364l-0.22,-0.363l-0.22,-0.365l-0.218,-0.365l-0.217,-0.366l-0.216,-0.366l-0.215,-0.368l-0.214,-0.368l-0.213,-0.368l-0.212,-0.37l-0.21,-0.37l-0.21,-0.371l-0.208,-0.371l-0.208,-0.372l-0.206,-0.373l-0.205,-0.374l-0.205,-0.374l-0.203,-0.375l-0.202,-0.376l-0.2,-0.376l-0.2,-0.377l-0.199,-0.378l-0.197,-0.378l-0.197,-0.379l-0.195,-0.379l-0.194,-0.381l-0.193,-0.381l-0.192,-0.381l-0.191,-0.383l-0.19,-0.383l-0.188,-0.383l-0.188,-0.384l-0.186,-0.385l-0.185,-0.386l-0.184,-0.386l-0.183,-0.387l-0.182,-0.387l-0.18,-0.389l-0.18,-0.388l-0.178,-0.39l-0.177,-0.39l-0.176,-0.39l-0.175,-0.392l-0.174,-0.392l-0.173,-0.392l-0.171,-0.393l-0.17,-0.394l-0.169,-0.394l-0.168,-0.395l-0.167,-0.396l-0.165,-0.396l-0.165,-0.397l-0.163,-0.398l-0.162,-0.398l-0.161,-0.398l-0.16,-0.399l-0.158,-0.4l-0.158,-0.401l-0.156,-0.401l-0.155,-0.401l-0.153,-0.403l-0.153,-0.402l-0.151,-0.404l-0.15,-0.404l-0.149,-0.404l-0.148,-0.405l-0.147,-0.406l-0.145,-0.406l-0.144,-0.407l-0.143,-0.408l-0.142,-0.408l-0.14,-0.408l-0.139,-0.409l-0.138,-0.41l-0.137,-0.41l-0.136,-0.411l-0.134,-0.411l-0.133,-0.412l-0.132,-0.413l-0.131,-0.413l-0.129,-0.413l-0.129,-0.414l-0.127,-0.415l-0.125,-0.415l-0.125,-0.416l-0.123,-0.416l-0.122,-0.417l-0.121,-0.417l-0.119,-0.418l-0.118,-0.418l-0.117,-0.419l-0.116,-0.42l-0.115,-0.419l-0.113,-0.421l-0.112,-0.421l-0.11,-0.421l-0.11,-0.422l-0.108,-0.423l-0.107,-0.423l-0.105,-0.423l-0.104,-0.424l-0.103,-0.425l-0.102,-0.425l-0.101,-0.425l-0.099,-0.426l-0.098,-0.427l-0.096,-0.427l-0.095,-0.427l-0.094,-0.428l-0.093,-0.428l-0.091,-0.429l-0.09,-0.43l-0.089,-0.43l-0.088,-0.43l-0.086,-0.431l-0.085,-0.431l-0.083,-0.432l-0.082,-0.432l-0.081,-0.433l-0.08,-0.433l-0.078,-0.433l-0.077,-0.434l-0.076,-0.435l-0.074,-0.435l-0.073,-0.435l-0.071,-0.436l-0.071,-0.436l-0.069,-0.437l-0.067,-0.437l-0.066,-0.438l-0.065,-0.438l-0.064,-0.438l-0.062,-0.439l-0.061,-0.44l-0.059,-0.439l-0.058,-0.441l-0.057,-0.44l-0.056,-0.441l-0.054,-0.442l-0.052,-0.442l-0.052,-0.442l-0.05,-0.443l-0.048,-0.443l-0.048,-0.443l-0.045,-0.444l-0.045,-0.445l-0.043,-0.444l-0.042,-0.445l-0.04,-0.446l-0.039,-0.446l-0.038,-0.446l-0.036,-0.447l-0.035,-0.447l-0.033,-0.448l-0.032,-0.447l-0.03,-0.449l-0.03,-0.448l-0.027,-0.449l-0.027,-0.45l-0.025,-0.45l-0.023,-0.45l-0.023,-0.45l-0.02,-0.451l-0.02,-0.451l-0.018,-0.452l-0.016,-0.452l-0.015,-0.452l-0.014,-0.453l-0.012,-0.453l-0.011,-0.453l-0.009,-0.454l-0.008,-0.454l-0.006,-0.455l-0.006,-0.455l-0.003,-0.455l-0.002,-0.455l-0.001,-0.456l0.001,-0.456l0.002,-0.455l0.003,-0.455l0.006,-0.455l0.006,-0.455l0.008,-0.454l0.009,-0.454l0.011,-0.453l0.012,-0.453l0.014,-0.453l0.015,-0.452l0.016,-0.452l0.018,-0.452l0.02,-0.451l0.02,-0.451l0.023,-0.45l0.023,-0.45l0.025,-0.45l0.027,-0.45l0.027,-0.449l0.03,-0.448l0.03,-0.449l0.032,-0.447l0.033,-0.448l0.035,-0.447l0.036,-0.447l0.038,-0.446l0.039,-0.446l0.04,-0.446l0.042,-0.445l0.043,-0.444l0.045,-0.445l0.045,-0.444l0.048,-0.443l0.048,-0.443l0.05,-0.443l0.052,-0.442l0.052,-0.442l0.054,-0.442l0.056,-0.441l0.057,-0.44l0.058,-0.441l0.059,-0.439l0.061,-0.44l0.062,-0.439l0.064,-0.438l0.065,-0.438l0.066,-0.438l0.067,-0.437l0.069,-0.437l0.071,-0.436l0.071,-0.436l0.073,-0.435l0.074,-0.435l0.076,-0.435l0.077,-0.434l0.078,-0.433l0.08,-0.433l0.081,-0.433l0.082,-0.432l0.083,-0.432l0.085,-0.431l0.086,-0.431l0.088,-0.43l0.089,-0.43l0.09,-0.43l0.091,-0.429l0.093,-0.428l0.094,-0.428l0.095,-0.427l0.096,-0.427l0.098,-0.427l0.099,-0.426l0.101,-0.425l0.102,-0.425l0.103,-0.425l0.104,-0.424l0.105,-0.423l0.107,-0.423l0.108,-0.423l0.11,-0.422l0.11,-0.421l0.112,-0.421l0.113,-0.421l0.115,-0.419l0.116,-0.42l0.117,-0.419l0.118,-0.418l0.119,-0.418l0.121,-0.417l0.122,-0.417l0.123,-0.416l0.125,-0.416l0.125,-0.415l0.127,-0.415l0.129,-0.414l0.129,-0.413l0.131,-0.413l0.132,-0.413l0.133,-0.412l0.134,-0.411l0.136,-0.411l0.137,-0.41l0.138,-0.41l0.139,-0.409l0.14,-0.408l0.142,-0.408l0.143,-0.408l0.144,-0.407l0.145,-0.406l0.147,-0.406l0.148,-0.405l0.149,-0.404l0.15,-0.404l0.151,-0.404l0.153,-0.402l0.153,-0.403l0.155,-0.401l0.156,-0.401l0.158,-0.401l0.158,-0.4l0.16,-0.399l0.161,-0.398l0.162,-0.398l0.163,-0.398l0.165,-0.397l0.165,-0.396l0.167,-0.396l0.168,-0.395l0.169,-0.394l0.17,-0.394l0.171,-0.393l0.173,-0.392l0.174,-0.392l0.175,-0.392l0.176,-0.39l0.177,-0.39l0.178,-0.39l0.18,-0.388l0.18,-0.389l0.182,-0.387l0.183,-0.387l0.184,-0.386l0.185,-0.386l0.186,-0.385l0.188,-0.384l0.188,-0.383l0.19,-0.383l0.191,-0.383l0.192,-0.381l0.193,-0.381l0.194,-0.381l0.195,-0.379l0.197,-0.379l0.197,-0.378l0.199,-0.378l0.2,-0.377l0.2,-0.376l0.202,-0.376l0.203,-0.375l0.205,-0.374l0.205,-0.374l0.206,-0.373l0.208,-0.372l0.208,-0.371l0.21,-0.371l0.21,-0.37l0.212,-0.37l0.213,-0.368l0.214,-0.368l0.215,-0.368l0.216,-0.366l0.217,-0.366l0.218,-0.365l0.22,-0.365l0.22,-0.363l0.222,-0.364l0.222,-0.362l0.224,-0.361l0.224,-0.361l0.226,-0.36l0.227,-0.36l0.227,-0.359l0.229,-0.358l0.23,-0.357l0.231,-0.356l0.232,-0.356l0.233,-0.355l0.234,-0.354l0.235,-0.354l0.236,-0.353l0.237,-0.352l0.238,-0.351l0.24,-0.35l0.24,-0.35l0.241,-0.349l0.242,-0.348l0.244,-0.348l0.244,-0.347l0.245,-0.345l0.247,-0.346l0.247,-0.344l0.248,-0.344l0.25,-0.343l0.25,-0.342l0.251,-0.341l0.253,-0.34l0.253,-0.34l0.254,-0.339l0.256,-0.338l0.256,-0.338l0.257,-0.336l0.259,-0.336l0.259,-0.335l0.26,-0.334l0.261,-0.334l0.263,-0.332l0.263,-0.332l0.264,-0.331l0.265,-0.33l0.266,-0.329l0.267,-0.329l0.268,-0.328l0.269,-0.326l0.27,-0.327l0.271,-0.325l0.272,-0.324l0.273,-0.324l0.274,-0.323l0.274,-0.321l0.276,-0.322l0.277,-0.32l0.277,-0.319l0.279,-0.319l0.279,-0.318l0.281,-0.316l0.281,-0.316l0.282,-0.316l0.283,-0.314l0.285,-0.314l0.285,-0.312l0.285,-0.312l0.287,-0.311l0.288,-0.31l0.289,-0.309l0.289,-0.308l0.291,-0.308l0.291,-0.306l0.293,-0.306l0.293,-0.305l0.294,-0.304l0.295,-0.303l0.296,-0.302l0.297,-0.302l0.298,-0.3l0.298,-0.3l0.3,-0.298l0.3,-0.298l0.302,-0.297l0.302,-0.296l0.303,-0.295l0.304,-0.294l0.305,-0.293l0.306,-0.293l0.306,-0.291l0.308,-0.291l0.308,-0.289l0.309,-0.289l0.31,-0.288l0.311,-0.287l0.312,-0.285l0.312,-0.285l0.314,-0.285l0.314,-0.283l0.316,-0.282l0.316,-0.281l0.316,-0.281l0.318,-0.279l0.319,-0.279l0.319,-0.277l0.32,-0.277l0.322,-0.276l0.321,-0.274l0.323,-0.274l0.324,-0.273l0.324,-0.272l0.325,-0.271l0.327,-0.27l0.326,-0.269l0.328,-0.268l0.329,-0.267l0.329,-0.266l0.33,-0.265l0.331,-0.264l0.332,-0.263l0.332,-0.263l0.334,-0.261l0.334,-0.26l0.335,-0.259l0.336,-0.259l0.336,-0.257l0.338,-0.256l0.338,-0.256l0.339,-0.254l0.34,-0.253l0.34,-0.253l0.341,-0.251l0.342,-0.25l0.343,-0.25l0.344,-0.248l0.344,-0.247l0.346,-0.247l0.345,-0.245l0.347,-0.244l0.348,-0.244l0.348,-0.242l0.349,-0.241l0.35,-0.24l0.35,-0.24l0.351,-0.238l0.352,-0.237l0.353,-0.236l0.354,-0.235l0.354,-0.234l0.355,-0.233l0.356,-0.232l0.356,-0.231l0.357,-0.23l0.358,-0.229l0.359,-0.227l0.36,-0.227l0.36,-0.226l0.361,-0.224l0.361,-0.224l0.362,-0.222l0.364,-0.222l0.363,-0.22l0.365,-0.22l0.365,-0.218l0.366,-0.217l0.366,-0.216l0.368,-0.215l0.368,-0.214l0.368,-0.213l0.37,-0.212l0.37,-0.21l0.371,-0.21l0.371,-0.208l0.372,-0.208l0.373,-0.206l0.374,-0.205l0.374,-0.205l0.375,-0.203l0.376,-0.202l0.376,-0.2l0.377,-0.2l0.378,-0.199l0.378,-0.197l0.379,-0.197l0.379,-0.195l0.381,-0.194l0.381,-0.193l0.381,-0.192l0.383,-0.191l0.383,-0.19l0.383,-0.188l0.384,-0.188l0.385,-0.186l0.386,-0.185l0.386,-0.184l0.387,-0.183l0.387,-0.182l0.389,-0.18l0.388,-0.18l0.39,-0.178l0.39,-0.177l0.39,-0.176l0.392,-0.175l0.392,-0.174l0.392,-0.173l0.393,-0.171l0.394,-0.17l0.394,-0.169l0.395,-0.168l0.396,-0.167l0.396,-0.165l0.397,-0.165l0.398,-0.163l0.398,-0.162l0.398,-0.161l0.399,-0.16l0.4,-0.158l0.401,-0.158l0.401,-0.156l0.401,-0.155l0.403,-0.153l0.402,-0.153l0.404,-0.151l0.404,-0.15l0.404,-0.149l0.405,-0.148l0.406,-0.147l0.406,-0.145l0.407,-0.144l0.408,-0.143l0.408,-0.142l0.408,-0.14l0.409,-0.139l0.41,-0.138l0.41,-0.137l0.411,-0.136l0.411,-0.134l0.412,-0.133l0.413,-0.132l0.413,-0.131l0.413,-0.129l0.414,-0.129l0.415,-0.127l0.415,-0.125l0.416,-0.125l0.416,-0.123l0.417,-0.122l0.417,-0.121l0.418,-0.119l0.418,-0.118l0.419,-0.117l0.42,-0.116l0.419,-0.115l0.421,-0.113l0.421,-0.112l0.421,-0.11l0.422,-0.11l0.423,-0.108l0.423,-0.107l0.423,-0.105l0.424,-0.104l0.425,-0.103l0.425,-0.102l0.425,-0.101l0.426,-0.099l0.427,-0.098l0.427,-0.096l0.427,-0.095l0.428,-0.094l0.428,-0.093l0.429,-0.091l0.43,-0.09l0.43,-0.089l0.43,-0.088l0.431,-0.086l0.431,-0.085l0.432,-0.083l0.432,-0.082l0.433,-0.081l0.433,-0.08l0.433,-0.078l0.434,-0.077l0.435,-0.076l0.435,-0.074l0.435,-0.073l0.436,-0.071l0.436,-0.071l0.437,-0.069l0.437,-0.067l0.438,-0.066l0.438,-0.065l0.438,-0.064l0.439,-0.062l0.44,-0.061l0.439,-0.059l0.441,-0.058l0.44,-0.057l0.441,-0.056l0.442,-0.054l0.442,-0.052l0.442,-0.052l0.443,-0.05l0.443,-0.048l0.443,-0.048l0.444,-0.045l0.445,-0.045l0.444,-0.043l0.445,-0.042l0.446,-0.04l0.446,-0.039l0.446,-0.038l0.447,-0.036l0.447,-0.035l0.448,-0.033l0.447,-0.032l0.449,-0.03l0.448,-0.03l0.449,-0.027l0.45,-0.027l0.45,-0.025l0.45,-0.023l0.45,-0.023l0.451,-0.02l0.451,-0.02l0.452,-0.018l0.452,-0.016l0.452,-0.015l0.453,-0.014l0.453,-0.012l0.453,-0.011l0.454,-0.009l0.454,-0.008l0.455,-0.006l0.455,-0.006l0.455,-0.003l0.455,-0.002l0.456,-0.001l0.456,0.001Zm-0.859,16.543l-0.404,0.002l-0.402,0.003l-0.402,0.004l-0.402,0.006l-0.402,0.007l-0.401,0.008l-0.401,0.01l-0.401,0.011l-0.4,0.012l-0.4,0.013l-0.4,0.015l-0.399,0.016l-0.399,0.017l-0.398,0.018l-0.398,0.02l-0.398,0.02l-0.398,0.022l-0.397,0.024l-0.397,0.024l-0.396,0.026l-0.396,0.027l-0.396,0.028l-0.395,0.03l-0.395,0.031l-0.394,0.032l-0.395,0.033l-0.394,0.034l-0.393,0.036l-0.393,0.037l-0.393,0.038l-0.392,0.039l-0.393,0.04l-0.391,0.042l-0.39,0.043l-0.392,0.044l-0.391,0.045l-0.389,0.047l-0.39,0.048l-0.389,0.049l-0.389,0.05l-0.389,0.051l-0.388,0.053l-0.387,0.053l-0.388,0.055l-0.386,0.056l-0.387,0.057l-0.387,0.059l-0.385,0.059l-0.385,0.061l-0.385,0.062l-0.385,0.063l-0.384,0.065l-0.384,0.065l-0.382,0.067l-0.383,0.068l-0.383,0.069l-0.382,0.07l-0.381,0.071l-0.382,0.073l-0.381,0.074l-0.38,0.074l-0.38,0.076l-0.38,0.078l-0.378,0.078l-0.379,0.079l-0.379,0.081l-0.377,0.081l-0.377,0.083l-0.378,0.084l-0.377,0.086l-0.375,0.086l-0.375,0.087l-0.376,0.089l-0.374,0.089l-0.375,0.091l-0.374,0.092l-0.373,0.093l-0.374,0.094l-0.372,0.096l-0.371,0.096l-0.372,0.098l-0.372,0.099l-0.37,0.099l-0.37,0.101l-0.37,0.102l-0.37,0.103l-0.369,0.105l-0.368,0.105l-0.368,0.106l-0.367,0.108l-0.367,0.109l-0.366,0.109l-0.367,0.111l-0.366,0.112l-0.364,0.113l-0.365,0.114l-0.364,0.115l-0.363,0.117l-0.364,0.117l-0.363,0.119l-0.362,0.119l-0.361,0.121l-0.362,0.121l-0.361,0.123l-0.359,0.124l-0.36,0.125l-0.36,0.126l-0.358,0.127l-0.359,0.128l-0.358,0.13l-0.356,0.13l-0.357,0.131l-0.357,0.133l-0.355,0.133l-0.355,0.135l-0.356,0.135l-0.353,0.136l-0.354,0.138l-0.353,0.139l-0.352,0.14l-0.353,0.141l-0.351,0.142l-0.352,0.143l-0.35,0.144l-0.35,0.144l-0.349,0.147l-0.349,0.146l-0.349,0.149l-0.348,0.149l-0.347,0.15l-0.347,0.151l-0.345,0.152l-0.346,0.153l-0.346,0.155l-0.344,0.155l-0.344,0.156l-0.344,0.158l-0.343,0.158l-0.342,0.159l-0.342,0.161l-0.341,0.161l-0.34,0.162l-0.341,0.164l-0.34,0.164l-0.338,0.165l-0.339,0.167l-0.338,0.167l-0.337,0.168l-0.336,0.17l-0.337,0.17l-0.336,0.172l-0.335,0.172l-0.334,0.173l-0.334,0.174l-0.333,0.176l-0.332,0.176l-0.333,0.177l-0.331,0.178l-0.33,0.179l-0.331,0.181l-0.33,0.181l-0.329,0.182l-0.329,0.183l-0.327,0.184l-0.327,0.184l-0.327,0.187l-0.327,0.187l-0.324,0.188l-0.325,0.188l-0.326,0.191l-0.323,0.19l-0.322,0.191l-0.322,0.193l-0.322,0.194l-0.321,0.194l-0.321,0.196l-0.32,0.196l-0.318,0.197l-0.32,0.199l-0.318,0.2l-0.317,0.199l-0.315,0.201l-0.318,0.203l-0.315,0.203l-0.314,0.203l-0.314,0.205l-0.315,0.207l-0.312,0.205l-0.311,0.208l-0.312,0.208l-0.311,0.21l-0.31,0.21l-0.31,0.211l-0.31,0.213l-0.306,0.212l-0.308,0.214l-0.308,0.216l-0.306,0.215l-0.305,0.217l-0.305,0.217l-0.304,0.219l-0.303,0.219l-0.303,0.22l-0.302,0.221l-0.303,0.223l-0.3,0.222l-0.299,0.224l-0.3,0.225l-0.299,0.225l-0.298,0.227l-0.297,0.227l-0.297,0.228l-0.295,0.229l-0.295,0.229l-0.295,0.232l-0.294,0.232l-0.293,0.232l-0.292,0.233l-0.291,0.234l-0.293,0.236l-0.289,0.235l-0.29,0.237l-0.289,0.238l-0.287,0.238l-0.288,0.239l-0.287,0.241l-0.285,0.241l-0.285,0.241l-0.285,0.244l-0.284,0.244l-0.283,0.243l-0.281,0.245l-0.282,0.247l-0.281,0.247l-0.279,0.247l-0.28,0.248l-0.279,0.251l-0.278,0.25l-0.277,0.251l-0.275,0.251l-0.275,0.252l-0.276,0.254l-0.274,0.255l-0.273,0.255l-0.272,0.256l-0.272,0.256l-0.271,0.258l-0.269,0.257l-0.269,0.259l-0.27,0.261l-0.267,0.26l-0.268,0.262l-0.266,0.263l-0.265,0.263l-0.265,0.263l-0.263,0.264l-0.264,0.267l-0.262,0.265l-0.261,0.267l-0.262,0.269l-0.259,0.267l-0.259,0.271l-0.259,0.27l-0.256,0.27l-0.258,0.272l-0.256,0.272l-0.255,0.273l-0.254,0.275l-0.253,0.273l-0.253,0.277l-0.252,0.276l-0.25,0.276l-0.251,0.279l-0.249,0.278l-0.249,0.279l-0.248,0.28l-0.246,0.28l-0.247,0.283l-0.245,0.281l-0.243,0.283l-0.245,0.284l-0.243,0.285l-0.242,0.285l-0.24,0.285l-0.24,0.286l-0.24,0.289l-0.238,0.288l-0.238,0.288l-0.237,0.29l-0.236,0.29l-0.235,0.291l-0.234,0.291l-0.233,0.293l-0.233,0.293l-0.232,0.294l-0.23,0.294l-0.229,0.295l-0.231,0.297l-0.227,0.296l-0.227,0.297l-0.227,0.299l-0.226,0.298l-0.224,0.299l-0.224,0.301l-0.223,0.301l-0.222,0.301l-0.221,0.301l-0.22,0.303l-0.219,0.304l-0.219,0.304l-0.217,0.305l-0.216,0.305l-0.217,0.307l-0.215,0.307l-0.213,0.307l-0.214,0.308l-0.211,0.309l-0.212,0.309l-0.21,0.311l-0.21,0.311l-0.208,0.31l-0.208,0.313l-0.207,0.314l-0.205,0.312l-0.204,0.314l-0.204,0.315l-0.203,0.316l-0.202,0.316l-0.202,0.317l-0.2,0.318l-0.199,0.317l-0.198,0.318l-0.197,0.319l-0.197,0.321l-0.196,0.321l-0.194,0.319l-0.193,0.322l-0.193,0.323l-0.192,0.323l-0.191,0.324l-0.189,0.323l-0.189,0.324l-0.189,0.328l-0.187,0.326l-0.185,0.325l-0.185,0.328l-0.185,0.329l-0.182,0.327l-0.182,0.328l-0.182,0.332l-0.18,0.33l-0.179,0.331l-0.178,0.33l-0.177,0.332l-0.177,0.334l-0.175,0.332l-0.173,0.333l-0.175,0.337l-0.172,0.334l-0.17,0.334l-0.172,0.338l-0.169,0.337l-0.168,0.336l-0.167,0.338l-0.167,0.339l-0.166,0.34l-0.163,0.337l-0.163,0.34l-0.163,0.342l-0.161,0.341l-0.161,0.342l-0.159,0.342l-0.158,0.343l-0.158,0.344l-0.156,0.344l-0.156,0.345l-0.154,0.345l-0.153,0.345l-0.151,0.345l-0.152,0.349l-0.151,0.348l-0.149,0.347l-0.147,0.348l-0.147,0.348l-0.146,0.35l-0.146,0.351l-0.144,0.35l-0.142,0.351l-0.142,0.351l-0.141,0.352l-0.14,0.352l-0.139,0.355l-0.137,0.353l-0.137,0.353l-0.135,0.355l-0.135,0.356l-0.134,0.357l-0.132,0.355l-0.131,0.355l-0.13,0.358l-0.13,0.358l-0.128,0.359l-0.127,0.359l-0.126,0.358l-0.125,0.36l-0.124,0.361l-0.122,0.36l-0.122,0.361l-0.121,0.363l-0.12,0.362l-0.117,0.36l-0.118,0.365l-0.117,0.365l-0.115,0.364l-0.114,0.363l-0.113,0.366l-0.112,0.365l-0.111,0.366l-0.11,0.368l-0.108,0.365l-0.108,0.368l-0.106,0.369l-0.105,0.367l-0.105,0.369l-0.103,0.369l-0.102,0.371l-0.101,0.371l-0.099,0.368l-0.099,0.373l-0.098,0.372l-0.096,0.371l-0.095,0.372l-0.095,0.374l-0.093,0.373l-0.092,0.374l-0.091,0.374l-0.089,0.375l-0.089,0.376l-0.087,0.376l-0.086,0.374l-0.086,0.377l-0.084,0.378l-0.082,0.376l-0.082,0.378l-0.081,0.379l-0.079,0.378l-0.079,0.38l-0.077,0.379l-0.075,0.379l-0.076,0.382l-0.073,0.38l-0.073,0.383l-0.071,0.381l-0.07,0.38l-0.069,0.382l-0.068,0.385l-0.067,0.383l-0.065,0.384l-0.065,0.384l-0.063,0.383l-0.062,0.385l-0.061,0.386l-0.059,0.386l-0.059,0.385l-0.057,0.387l-0.056,0.388l-0.055,0.387l-0.053,0.386l-0.053,0.389l-0.052,0.39l-0.049,0.387l-0.049,0.39l-0.048,0.389l-0.046,0.39l-0.046,0.392l-0.044,0.391l-0.043,0.391l-0.042,0.39l-0.04,0.392l-0.039,0.394l-0.039,0.393l-0.036,0.392l-0.036,0.392l-0.034,0.396l-0.034,0.395l-0.031,0.393l-0.031,0.394l-0.03,0.396l-0.028,0.397l-0.027,0.395l-0.026,0.396l-0.024,0.396l-0.024,0.398l-0.022,0.397l-0.02,0.398l-0.02,0.399l-0.018,0.399l-0.017,0.399l-0.016,0.399l-0.015,0.398l-0.013,0.4l-0.012,0.402l-0.011,0.399l-0.01,0.402l-0.008,0.402l-0.007,0.4l-0.006,0.403l-0.004,0.401l-0.003,0.403l-0.002,0.404l-0.001,0.403l0.001,0.403l0.002,0.404l0.003,0.403l0.004,0.401l0.006,0.403l0.007,0.4l0.008,0.402l0.01,0.402l0.011,0.399l0.012,0.402l0.013,0.4l0.015,0.398l0.016,0.399l0.017,0.399l0.018,0.399l0.02,0.399l0.02,0.398l0.022,0.397l0.024,0.398l0.024,0.396l0.026,0.396l0.027,0.395l0.028,0.397l0.03,0.396l0.031,0.394l0.031,0.393l0.034,0.395l0.034,0.396l0.036,0.392l0.036,0.392l0.039,0.393l0.039,0.394l0.04,0.392l0.042,0.39l0.043,0.391l0.044,0.391l0.046,0.392l0.046,0.39l0.048,0.389l0.049,0.39l0.049,0.387l0.052,0.39l0.053,0.389l0.053,0.386l0.055,0.387l0.056,0.387l0.057,0.388l0.059,0.385l0.059,0.386l0.061,0.386l0.062,0.385l0.063,0.383l0.065,0.384l0.065,0.384l0.067,0.383l0.068,0.385l0.069,0.382l0.07,0.38l0.071,0.382l0.073,0.382l0.073,0.38l0.076,0.382l0.075,0.379l0.077,0.379l0.079,0.38l0.079,0.378l0.081,0.379l0.082,0.378l0.082,0.376l0.084,0.378l0.086,0.377l0.086,0.374l0.087,0.376l0.089,0.376l0.089,0.374l0.091,0.375l0.092,0.374l0.093,0.373l0.095,0.374l0.095,0.373l0.096,0.369l0.098,0.373l0.099,0.373l0.099,0.368l0.101,0.371l0.102,0.371l0.103,0.369l0.105,0.369l0.105,0.368l0.106,0.368l0.108,0.368l0.108,0.366l0.11,0.366l0.111,0.367l0.112,0.366l0.113,0.365l0.114,0.363l0.115,0.364l0.117,0.365l0.118,0.365l0.117,0.36l0.12,0.362l0.121,0.363l0.121,0.361l0.123,0.36l0.124,0.361l0.126,0.361l0.125,0.357l0.127,0.359l0.128,0.359l0.13,0.358l0.13,0.357l0.131,0.356l0.132,0.356l0.134,0.355l0.135,0.357l0.136,0.356l0.135,0.352l0.138,0.353l0.139,0.355l0.14,0.352l0.141,0.352l0.142,0.351l0.142,0.351l0.144,0.35l0.145,0.351l0.147,0.35l0.147,0.349l0.147,0.347l0.149,0.347l0.151,0.348l0.152,0.349l0.151,0.345l0.153,0.344l0.155,0.346l0.155,0.345l0.156,0.344l0.158,0.344l0.158,0.343l0.159,0.342l0.161,0.342l0.161,0.341l0.163,0.341l0.163,0.34l0.163,0.338l0.166,0.34l0.167,0.34l0.167,0.337l0.168,0.337l0.169,0.335l0.172,0.339l0.171,0.335l0.172,0.334l0.174,0.336l0.173,0.333l0.175,0.332l0.177,0.334l0.178,0.332l0.177,0.33l0.179,0.331l0.18,0.33l0.182,0.331l0.182,0.329l0.182,0.327l0.185,0.329l0.185,0.328l0.185,0.325l0.188,0.326l0.188,0.328l0.188,0.323l0.191,0.325l0.19,0.324l0.191,0.322l0.194,0.323l0.193,0.322l0.194,0.319l0.196,0.322l0.196,0.32l0.198,0.319l0.198,0.319l0.199,0.317l0.2,0.316l0.201,0.318l0.203,0.317l0.203,0.315l0.204,0.315l0.204,0.314l0.206,0.313l0.206,0.313l0.208,0.312l0.208,0.311l0.21,0.311l0.21,0.31l0.212,0.311l0.212,0.308l0.212,0.308l0.214,0.307l0.215,0.307l0.217,0.308l0.216,0.304l0.217,0.305l0.219,0.304l0.219,0.303l0.22,0.303l0.221,0.302l0.223,0.302l0.222,0.3l0.224,0.301l0.225,0.299l0.225,0.298l0.227,0.299l0.227,0.297l0.228,0.296l0.23,0.297l0.229,0.294l0.23,0.295l0.233,0.294l0.232,0.293l0.233,0.293l0.234,0.29l0.235,0.292l0.236,0.29l0.237,0.29l0.238,0.288l0.238,0.288l0.24,0.289l0.24,0.286l0.24,0.285l0.241,0.284l0.245,0.286l0.244,0.285l0.243,0.282l0.245,0.281l0.247,0.282l0.246,0.281l0.248,0.28l0.249,0.28l0.25,0.278l0.25,0.278l0.25,0.276l0.252,0.276l0.253,0.276l0.253,0.275l0.254,0.274l0.255,0.273l0.256,0.272l0.258,0.272l0.256,0.27l0.258,0.269l0.26,0.271l0.26,0.269l0.261,0.268l0.261,0.267l0.263,0.266l0.263,0.265l0.263,0.265l0.265,0.263l0.265,0.263l0.266,0.263l0.267,0.261l0.268,0.261l0.269,0.26l0.271,0.26l0.269,0.258l0.27,0.256l0.272,0.258l0.272,0.256l0.273,0.255l0.274,0.254l0.275,0.253l0.276,0.253l0.276,0.252l0.276,0.25l0.278,0.25l0.278,0.25l0.28,0.249l0.28,0.248l0.281,0.246l0.282,0.247l0.281,0.245l0.282,0.243l0.285,0.244l0.286,0.245l0.284,0.241l0.285,0.24l0.286,0.24l0.289,0.24l0.288,0.238l0.288,0.238l0.29,0.237l0.29,0.236l0.292,0.235l0.29,0.234l0.293,0.233l0.293,0.232l0.294,0.233l0.295,0.23l0.294,0.229l0.297,0.23l0.296,0.228l0.297,0.227l0.299,0.227l0.298,0.225l0.299,0.225l0.301,0.224l0.3,0.222l0.302,0.223l0.302,0.221l0.303,0.22l0.303,0.219l0.304,0.219l0.305,0.217l0.304,0.216l0.308,0.217l0.307,0.215l0.307,0.214l0.308,0.212l0.308,0.212l0.311,0.212l0.31,0.21l0.311,0.21l0.311,0.208l0.312,0.208l0.313,0.206l0.313,0.206l0.314,0.204l0.315,0.204l0.315,0.203l0.317,0.203l0.318,0.201l0.316,0.2l0.317,0.199l0.319,0.198l0.319,0.198l0.32,0.196l0.322,0.196l0.319,0.194l0.322,0.193l0.323,0.194l0.322,0.191l0.324,0.19l0.325,0.191l0.323,0.188l0.328,0.188l0.326,0.188l0.325,0.185l0.328,0.185l0.329,0.185l0.327,0.182l0.329,0.182l0.331,0.182l0.33,0.18l0.331,0.179l0.33,0.177l0.332,0.178l0.334,0.177l0.332,0.175l0.333,0.173l0.336,0.174l0.334,0.172l0.335,0.171l0.339,0.172l0.335,0.169l0.337,0.168l0.337,0.167l0.34,0.167l0.34,0.166l0.338,0.163l0.34,0.163l0.341,0.163l0.341,0.161l0.342,0.161l0.342,0.159l0.343,0.158l0.344,0.158l0.344,0.156l0.345,0.155l0.346,0.155l0.344,0.153l0.345,0.151l0.349,0.152l0.348,0.151l0.347,0.149l0.347,0.147l0.349,0.147l0.35,0.147l0.351,0.145l0.35,0.144l0.351,0.142l0.351,0.142l0.352,0.141l0.352,0.14l0.355,0.139l0.353,0.138l0.352,0.135l0.356,0.136l0.357,0.135l0.355,0.134l0.356,0.132l0.356,0.131l0.357,0.13l0.358,0.13l0.359,0.128l0.359,0.127l0.357,0.125l0.361,0.126l0.361,0.124l0.36,0.123l0.361,0.121l0.363,0.121l0.362,0.12l0.36,0.117l0.365,0.118l0.365,0.117l0.364,0.115l0.363,0.114l0.365,0.113l0.366,0.112l0.367,0.111l0.366,0.11l0.366,0.108l0.368,0.108l0.368,0.106l0.368,0.105l0.369,0.105l0.369,0.103l0.371,0.102l0.371,0.101l0.368,0.099l0.373,0.099l0.373,0.098l0.369,0.096l0.373,0.095l0.374,0.095l0.373,0.093l0.374,0.092l0.375,0.091l0.374,0.089l0.376,0.089l0.376,0.087l0.374,0.086l0.377,0.086l0.378,0.084l0.376,0.082l0.378,0.082l0.379,0.081l0.378,0.079l0.38,0.079l0.379,0.077l0.379,0.075l0.382,0.076l0.38,0.073l0.382,0.073l0.382,0.071l0.38,0.07l0.382,0.069l0.385,0.068l0.383,0.067l0.384,0.065l0.384,0.065l0.383,0.063l0.385,0.062l0.386,0.061l0.386,0.059l0.385,0.059l0.388,0.057l0.387,0.056l0.387,0.055l0.386,0.053l0.389,0.053l0.39,0.052l0.387,0.049l0.39,0.049l0.389,0.048l0.39,0.046l0.392,0.046l0.391,0.044l0.391,0.043l0.39,0.042l0.392,0.04l0.394,0.039l0.393,0.039l0.392,0.036l0.392,0.036l0.396,0.034l0.395,0.034l0.393,0.031l0.394,0.031l0.396,0.03l0.397,0.028l0.395,0.027l0.396,0.026l0.396,0.024l0.398,0.024l0.397,0.022l0.398,0.02l0.399,0.02l0.399,0.018l0.399,0.017l0.399,0.016l0.398,0.015l0.4,0.013l0.402,0.012l0.399,0.011l0.402,0.01l0.402,0.008l0.4,0.007l0.403,0.006l0.401,0.004l0.403,0.003l0.404,0.002l0.403,0.001l0.403,-0.001l0.404,-0.002l0.403,-0.003l0.401,-0.004l0.403,-0.006l0.4,-0.007l0.402,-0.008l0.402,-0.01l0.399,-0.011l0.402,-0.012l0.4,-0.013l0.398,-0.015l0.399,-0.016l0.399,-0.017l0.399,-0.018l0.399,-0.02l0.398,-0.02l0.397,-0.022l0.398,-0.024l0.396,-0.024l0.396,-0.026l0.395,-0.027l0.397,-0.028l0.396,-0.03l0.394,-0.031l0.393,-0.031l0.395,-0.034l0.396,-0.034l0.392,-0.036l0.392,-0.036l0.393,-0.039l0.394,-0.039l0.392,-0.04l0.39,-0.042l0.391,-0.043l0.391,-0.044l0.392,-0.046l0.39,-0.046l0.389,-0.048l0.39,-0.049l0.387,-0.049l0.39,-0.052l0.389,-0.053l0.386,-0.053l0.387,-0.055l0.387,-0.056l0.388,-0.057l0.385,-0.059l0.386,-0.059l0.386,-0.061l0.385,-0.062l0.383,-0.063l0.384,-0.065l0.384,-0.065l0.383,-0.067l0.385,-0.068l0.382,-0.069l0.38,-0.07l0.382,-0.071l0.382,-0.073l0.38,-0.073l0.382,-0.076l0.379,-0.075l0.379,-0.077l0.38,-0.079l0.378,-0.079l0.379,-0.081l0.378,-0.082l0.376,-0.082l0.378,-0.084l0.377,-0.086l0.374,-0.086l0.376,-0.087l0.376,-0.089l0.374,-0.089l0.375,-0.091l0.374,-0.092l0.373,-0.093l0.374,-0.095l0.373,-0.095l0.369,-0.096l0.373,-0.098l0.373,-0.099l0.368,-0.099l0.371,-0.101l0.371,-0.102l0.369,-0.103l0.369,-0.105l0.368,-0.105l0.368,-0.106l0.368,-0.108l0.366,-0.108l0.366,-0.11l0.367,-0.111l0.366,-0.112l0.365,-0.113l0.363,-0.114l0.364,-0.115l0.365,-0.117l0.365,-0.118l0.36,-0.117l0.362,-0.12l0.363,-0.121l0.361,-0.121l0.36,-0.123l0.361,-0.124l0.361,-0.126l0.357,-0.125l0.359,-0.127l0.359,-0.128l0.358,-0.13l0.357,-0.13l0.356,-0.131l0.356,-0.132l0.355,-0.134l0.357,-0.135l0.356,-0.136l0.352,-0.135l0.353,-0.138l0.355,-0.139l0.352,-0.14l0.352,-0.141l0.351,-0.142l0.351,-0.142l0.35,-0.144l0.351,-0.145l0.35,-0.147l0.349,-0.147l0.347,-0.147l0.347,-0.149l0.348,-0.151l0.349,-0.152l0.345,-0.151l0.344,-0.153l0.346,-0.155l0.345,-0.155l0.344,-0.156l0.344,-0.158l0.343,-0.158l0.342,-0.159l0.342,-0.161l0.341,-0.161l0.341,-0.163l0.34,-0.163l0.338,-0.163l0.34,-0.166l0.34,-0.167l0.337,-0.167l0.337,-0.168l0.335,-0.169l0.339,-0.172l0.335,-0.171l0.334,-0.172l0.336,-0.174l0.333,-0.173l0.332,-0.175l0.334,-0.177l0.332,-0.178l0.33,-0.177l0.331,-0.179l0.33,-0.18l0.331,-0.182l0.329,-0.182l0.327,-0.182l0.329,-0.185l0.328,-0.185l0.325,-0.185l0.326,-0.188l0.328,-0.188l0.323,-0.188l0.325,-0.191l0.324,-0.19l0.322,-0.191l0.323,-0.194l0.322,-0.193l0.319,-0.194l0.322,-0.196l0.32,-0.196l0.319,-0.198l0.319,-0.198l0.317,-0.199l0.316,-0.2l0.318,-0.201l0.317,-0.203l0.315,-0.203l0.315,-0.204l0.314,-0.204l0.313,-0.206l0.313,-0.206l0.312,-0.208l0.311,-0.208l0.311,-0.21l0.31,-0.21l0.311,-0.212l0.308,-0.212l0.308,-0.212l0.307,-0.214l0.307,-0.215l0.308,-0.217l0.304,-0.216l0.305,-0.217l0.304,-0.219l0.303,-0.219l0.303,-0.22l0.302,-0.221l0.302,-0.223l0.3,-0.222l0.301,-0.224l0.299,-0.225l0.298,-0.225l0.299,-0.227l0.297,-0.227l0.296,-0.228l0.297,-0.23l0.294,-0.229l0.295,-0.23l0.294,-0.233l0.293,-0.232l0.293,-0.233l0.29,-0.234l0.292,-0.235l0.29,-0.236l0.29,-0.237l0.288,-0.238l0.288,-0.238l0.289,-0.24l0.286,-0.24l0.285,-0.24l0.284,-0.241l0.286,-0.245l0.285,-0.244l0.282,-0.243l0.281,-0.245l0.282,-0.247l0.281,-0.246l0.28,-0.248l0.28,-0.249l0.278,-0.25l0.278,-0.25l0.276,-0.25l0.276,-0.252l0.276,-0.253l0.275,-0.253l0.274,-0.254l0.273,-0.255l0.272,-0.256l0.272,-0.258l0.27,-0.256l0.269,-0.258l0.271,-0.26l0.269,-0.26l0.268,-0.261l0.267,-0.261l0.266,-0.263l0.265,-0.263l0.265,-0.263l0.263,-0.265l0.263,-0.265l0.263,-0.266l0.261,-0.267l0.261,-0.268l0.26,-0.269l0.26,-0.271l0.258,-0.269l0.256,-0.27l0.258,-0.272l0.256,-0.272l0.255,-0.273l0.254,-0.274l0.253,-0.275l0.253,-0.276l0.252,-0.276l0.25,-0.276l0.25,-0.278l0.25,-0.278l0.249,-0.28l0.248,-0.28l0.246,-0.281l0.247,-0.282l0.245,-0.281l0.243,-0.282l0.244,-0.285l0.245,-0.286l0.241,-0.284l0.24,-0.285l0.24,-0.286l0.24,-0.289l0.238,-0.288l0.238,-0.288l0.237,-0.29l0.236,-0.29l0.235,-0.292l0.234,-0.29l0.233,-0.293l0.232,-0.293l0.233,-0.294l0.23,-0.295l0.229,-0.294l0.23,-0.297l0.228,-0.296l0.227,-0.297l0.227,-0.299l0.225,-0.298l0.225,-0.299l0.224,-0.301l0.222,-0.3l0.223,-0.302l0.221,-0.302l0.22,-0.303l0.219,-0.303l0.219,-0.304l0.217,-0.305l0.216,-0.304l0.217,-0.308l0.215,-0.307l0.214,-0.307l0.212,-0.308l0.212,-0.308l0.212,-0.311l0.21,-0.31l0.21,-0.311l0.208,-0.311l0.208,-0.312l0.206,-0.313l0.206,-0.313l0.204,-0.314l0.204,-0.315l0.203,-0.315l0.203,-0.317l0.201,-0.318l0.2,-0.316l0.199,-0.317l0.198,-0.319l0.198,-0.319l0.196,-0.32l0.196,-0.322l0.194,-0.319l0.193,-0.322l0.194,-0.323l0.191,-0.322l0.19,-0.324l0.191,-0.325l0.188,-0.323l0.188,-0.328l0.188,-0.326l0.185,-0.325l0.185,-0.328l0.185,-0.329l0.182,-0.327l0.182,-0.329l0.182,-0.331l0.18,-0.33l0.179,-0.331l0.177,-0.33l0.178,-0.332l0.177,-0.334l0.175,-0.332l0.173,-0.333l0.174,-0.336l0.172,-0.334l0.171,-0.335l0.172,-0.339l0.169,-0.335l0.168,-0.337l0.167,-0.337l0.167,-0.34l0.166,-0.34l0.163,-0.338l0.163,-0.34l0.163,-0.341l0.161,-0.341l0.161,-0.342l0.159,-0.342l0.158,-0.343l0.158,-0.344l0.156,-0.344l0.155,-0.345l0.155,-0.346l0.153,-0.344l0.151,-0.345l0.152,-0.349l0.151,-0.348l0.149,-0.347l0.147,-0.347l0.147,-0.349l0.147,-0.35l0.145,-0.351l0.144,-0.35l0.142,-0.351l0.142,-0.351l0.141,-0.352l0.14,-0.352l0.139,-0.355l0.138,-0.353l0.135,-0.352l0.136,-0.356l0.135,-0.357l0.134,-0.355l0.132,-0.356l0.131,-0.356l0.13,-0.357l0.13,-0.358l0.128,-0.359l0.127,-0.359l0.125,-0.357l0.126,-0.361l0.124,-0.361l0.123,-0.36l0.121,-0.361l0.121,-0.363l0.12,-0.362l0.117,-0.36l0.118,-0.365l0.117,-0.365l0.115,-0.364l0.114,-0.363l0.113,-0.365l0.112,-0.366l0.111,-0.367l0.11,-0.366l0.108,-0.366l0.108,-0.368l0.106,-0.368l0.105,-0.368l0.105,-0.369l0.103,-0.369l0.102,-0.371l0.101,-0.371l0.099,-0.368l0.099,-0.373l0.098,-0.373l0.096,-0.369l0.095,-0.373l0.095,-0.374l0.093,-0.373l0.092,-0.374l0.091,-0.375l0.089,-0.374l0.089,-0.376l0.087,-0.376l0.086,-0.374l0.086,-0.377l0.084,-0.378l0.082,-0.376l0.082,-0.378l0.081,-0.379l0.079,-0.378l0.079,-0.38l0.077,-0.379l0.075,-0.379l0.076,-0.382l0.073,-0.38l0.073,-0.382l0.071,-0.382l0.07,-0.38l0.069,-0.382l0.068,-0.385l0.067,-0.383l0.065,-0.384l0.065,-0.384l0.063,-0.383l0.062,-0.385l0.061,-0.386l0.059,-0.386l0.059,-0.385l0.057,-0.388l0.056,-0.387l0.055,-0.387l0.053,-0.386l0.053,-0.389l0.052,-0.39l0.049,-0.387l0.049,-0.39l0.048,-0.389l0.046,-0.39l0.046,-0.392l0.044,-0.391l0.043,-0.391l0.042,-0.39l0.04,-0.392l0.039,-0.394l0.039,-0.393l0.036,-0.392l0.036,-0.392l0.034,-0.396l0.034,-0.395l0.031,-0.393l0.031,-0.394l0.03,-0.396l0.028,-0.397l0.027,-0.395l0.026,-0.396l0.024,-0.396l0.024,-0.398l0.022,-0.397l0.02,-0.398l0.02,-0.399l0.018,-0.399l0.017,-0.399l0.016,-0.399l0.015,-0.398l0.013,-0.4l0.012,-0.402l0.011,-0.399l0.01,-0.402l0.008,-0.402l0.007,-0.4l0.006,-0.403l0.004,-0.401l0.003,-0.403l0.002,-0.404l0.001,-0.403l-0.001,-0.403l-0.002,-0.404l-0.003,-0.403l-0.004,-0.401l-0.006,-0.403l-0.007,-0.4l-0.008,-0.402l-0.01,-0.402l-0.011,-0.399l-0.012,-0.402l-0.013,-0.4l-0.015,-0.398l-0.016,-0.399l-0.017,-0.399l-0.018,-0.399l-0.02,-0.399l-0.02,-0.398l-0.022,-0.397l-0.024,-0.398l-0.024,-0.396l-0.026,-0.396l-0.027,-0.395l-0.028,-0.397l-0.03,-0.396l-0.031,-0.394l-0.031,-0.393l-0.034,-0.395l-0.034,-0.396l-0.036,-0.392l-0.036,-0.392l-0.039,-0.393l-0.039,-0.394l-0.04,-0.392l-0.042,-0.39l-0.043,-0.391l-0.044,-0.391l-0.046,-0.392l-0.046,-0.39l-0.048,-0.389l-0.049,-0.39l-0.049,-0.387l-0.052,-0.39l-0.053,-0.389l-0.053,-0.386l-0.055,-0.387l-0.056,-0.388l-0.057,-0.387l-0.059,-0.385l-0.059,-0.386l-0.061,-0.386l-0.062,-0.385l-0.063,-0.383l-0.065,-0.384l-0.065,-0.384l-0.067,-0.383l-0.068,-0.385l-0.069,-0.382l-0.07,-0.38l-0.071,-0.381l-0.073,-0.383l-0.073,-0.38l-0.076,-0.382l-0.075,-0.379l-0.077,-0.379l-0.079,-0.38l-0.079,-0.378l-0.081,-0.379l-0.082,-0.378l-0.082,-0.376l-0.084,-0.378l-0.086,-0.377l-0.086,-0.374l-0.087,-0.376l-0.089,-0.376l-0.089,-0.375l-0.091,-0.374l-0.092,-0.374l-0.093,-0.373l-0.095,-0.374l-0.095,-0.372l-0.096,-0.371l-0.098,-0.372l-0.099,-0.373l-0.099,-0.368l-0.101,-0.371l-0.102,-0.371l-0.103,-0.369l-0.105,-0.369l-0.105,-0.367l-0.106,-0.369l-0.108,-0.368l-0.108,-0.365l-0.11,-0.368l-0.111,-0.366l-0.112,-0.365l-0.113,-0.366l-0.114,-0.363l-0.115,-0.364l-0.117,-0.365l-0.118,-0.365l-0.117,-0.36l-0.12,-0.362l-0.121,-0.363l-0.122,-0.361l-0.122,-0.36l-0.124,-0.361l-0.125,-0.36l-0.126,-0.358l-0.127,-0.359l-0.128,-0.359l-0.13,-0.358l-0.13,-0.358l-0.131,-0.355l-0.132,-0.355l-0.134,-0.357l-0.135,-0.356l-0.135,-0.355l-0.137,-0.353l-0.137,-0.353l-0.139,-0.355l-0.14,-0.352l-0.141,-0.352l-0.142,-0.351l-0.142,-0.351l-0.144,-0.35l-0.146,-0.351l-0.146,-0.35l-0.147,-0.348l-0.147,-0.348l-0.149,-0.347l-0.151,-0.348l-0.152,-0.349l-0.151,-0.345l-0.153,-0.345l-0.154,-0.345l-0.156,-0.345l-0.156,-0.344l-0.158,-0.344l-0.158,-0.343l-0.159,-0.342l-0.161,-0.342l-0.161,-0.341l-0.163,-0.342l-0.163,-0.34l-0.163,-0.337l-0.166,-0.34l-0.167,-0.339l-0.167,-0.338l-0.168,-0.336l-0.169,-0.337l-0.172,-0.338l-0.17,-0.334l-0.172,-0.334l-0.175,-0.337l-0.173,-0.333l-0.175,-0.332l-0.177,-0.334l-0.177,-0.332l-0.178,-0.33l-0.179,-0.331l-0.18,-0.33l-0.182,-0.332l-0.182,-0.328l-0.182,-0.327l-0.185,-0.329l-0.185,-0.328l-0.185,-0.325l-0.187,-0.326l-0.189,-0.328l-0.189,-0.324l-0.189,-0.323l-0.191,-0.324l-0.192,-0.323l-0.193,-0.323l-0.193,-0.322l-0.194,-0.319l-0.196,-0.321l-0.197,-0.321l-0.197,-0.319l-0.198,-0.318l-0.199,-0.317l-0.2,-0.318l-0.202,-0.317l-0.202,-0.316l-0.203,-0.316l-0.204,-0.315l-0.204,-0.314l-0.205,-0.312l-0.207,-0.314l-0.208,-0.313l-0.208,-0.31l-0.21,-0.311l-0.21,-0.311l-0.212,-0.309l-0.211,-0.309l-0.214,-0.308l-0.213,-0.307l-0.215,-0.307l-0.217,-0.307l-0.216,-0.305l-0.217,-0.305l-0.219,-0.304l-0.219,-0.304l-0.22,-0.303l-0.221,-0.301l-0.222,-0.301l-0.223,-0.301l-0.224,-0.301l-0.224,-0.299l-0.226,-0.298l-0.227,-0.299l-0.227,-0.297l-0.227,-0.296l-0.231,-0.297l-0.229,-0.295l-0.23,-0.294l-0.232,-0.294l-0.233,-0.293l-0.233,-0.293l-0.234,-0.291l-0.235,-0.291l-0.236,-0.29l-0.237,-0.29l-0.238,-0.288l-0.238,-0.288l-0.24,-0.289l-0.24,-0.286l-0.24,-0.285l-0.242,-0.285l-0.243,-0.285l-0.245,-0.284l-0.243,-0.283l-0.245,-0.281l-0.247,-0.283l-0.246,-0.28l-0.248,-0.28l-0.249,-0.279l-0.249,-0.278l-0.251,-0.279l-0.25,-0.276l-0.252,-0.276l-0.253,-0.277l-0.253,-0.273l-0.254,-0.275l-0.255,-0.273l-0.256,-0.272l-0.258,-0.272l-0.256,-0.27l-0.259,-0.27l-0.259,-0.271l-0.259,-0.267l-0.262,-0.269l-0.261,-0.267l-0.262,-0.265l-0.264,-0.267l-0.263,-0.264l-0.265,-0.263l-0.265,-0.263l-0.266,-0.263l-0.268,-0.262l-0.267,-0.26l-0.27,-0.261l-0.269,-0.259l-0.269,-0.257l-0.271,-0.258l-0.272,-0.256l-0.272,-0.256l-0.273,-0.255l-0.274,-0.255l-0.276,-0.254l-0.275,-0.252l-0.275,-0.251l-0.277,-0.251l-0.278,-0.25l-0.279,-0.251l-0.28,-0.248l-0.279,-0.247l-0.281,-0.247l-0.282,-0.247l-0.281,-0.245l-0.283,-0.243l-0.284,-0.244l-0.285,-0.244l-0.285,-0.241l-0.285,-0.241l-0.287,-0.241l-0.288,-0.239l-0.287,-0.238l-0.289,-0.238l-0.29,-0.237l-0.289,-0.235l-0.293,-0.236l-0.291,-0.234l-0.292,-0.233l-0.293,-0.232l-0.294,-0.232l-0.295,-0.232l-0.295,-0.229l-0.295,-0.229l-0.297,-0.228l-0.297,-0.227l-0.298,-0.227l-0.299,-0.225l-0.3,-0.225l-0.299,-0.224l-0.3,-0.222l-0.303,-0.223l-0.302,-0.221l-0.303,-0.22l-0.303,-0.219l-0.304,-0.219l-0.305,-0.217l-0.305,-0.217l-0.306,-0.215l-0.308,-0.216l-0.308,-0.214l-0.306,-0.212l-0.31,-0.213l-0.31,-0.211l-0.31,-0.21l-0.311,-0.21l-0.312,-0.208l-0.311,-0.208l-0.312,-0.205l-0.315,-0.207l-0.314,-0.205l-0.314,-0.203l-0.315,-0.203l-0.318,-0.203l-0.315,-0.201l-0.317,-0.199l-0.318,-0.2l-0.32,-0.199l-0.318,-0.197l-0.32,-0.196l-0.321,-0.196l-0.321,-0.194l-0.322,-0.194l-0.322,-0.193l-0.322,-0.191l-0.323,-0.19l-0.326,-0.191l-0.325,-0.188l-0.324,-0.188l-0.327,-0.187l-0.327,-0.187l-0.327,-0.184l-0.327,-0.184l-0.329,-0.183l-0.329,-0.182l-0.33,-0.181l-0.331,-0.181l-0.33,-0.179l-0.331,-0.178l-0.333,-0.177l-0.332,-0.176l-0.333,-0.176l-0.334,-0.174l-0.334,-0.173l-0.335,-0.172l-0.336,-0.172l-0.337,-0.17l-0.336,-0.17l-0.337,-0.168l-0.338,-0.167l-0.339,-0.167l-0.338,-0.165l-0.34,-0.164l-0.341,-0.164l-0.34,-0.162l-0.341,-0.161l-0.342,-0.161l-0.342,-0.159l-0.343,-0.158l-0.344,-0.158l-0.344,-0.156l-0.344,-0.155l-0.346,-0.155l-0.346,-0.153l-0.345,-0.152l-0.347,-0.151l-0.347,-0.15l-0.348,-0.149l-0.349,-0.149l-0.349,-0.146l-0.349,-0.147l-0.35,-0.144l-0.35,-0.144l-0.352,-0.143l-0.351,-0.142l-0.353,-0.141l-0.352,-0.14l-0.353,-0.139l-0.354,-0.138l-0.353,-0.136l-0.356,-0.135l-0.355,-0.135l-0.355,-0.133l-0.357,-0.133l-0.357,-0.131l-0.356,-0.13l-0.358,-0.13l-0.359,-0.128l-0.358,-0.127l-0.36,-0.126l-0.36,-0.125l-0.359,-0.124l-0.361,-0.123l-0.362,-0.121l-0.361,-0.121l-0.362,-0.119l-0.363,-0.119l-0.364,-0.117l-0.363,-0.117l-0.364,-0.115l-0.365,-0.114l-0.364,-0.113l-0.366,-0.112l-0.367,-0.111l-0.366,-0.109l-0.367,-0.109l-0.367,-0.108l-0.368,-0.106l-0.368,-0.105l-0.369,-0.105l-0.37,-0.103l-0.37,-0.102l-0.37,-0.101l-0.37,-0.099l-0.372,-0.099l-0.372,-0.098l-0.371,-0.096l-0.372,-0.096l-0.374,-0.094l-0.373,-0.093l-0.374,-0.092l-0.375,-0.091l-0.374,-0.089l-0.376,-0.089l-0.375,-0.087l-0.375,-0.086l-0.377,-0.086l-0.378,-0.084l-0.377,-0.083l-0.377,-0.081l-0.379,-0.081l-0.379,-0.079l-0.378,-0.078l-0.38,-0.078l-0.38,-0.076l-0.38,-0.074l-0.381,-0.074l-0.382,-0.073l-0.381,-0.071l-0.382,-0.07l-0.383,-0.069l-0.383,-0.068l-0.382,-0.067l-0.384,-0.065l-0.384,-0.065l-0.385,-0.063l-0.385,-0.062l-0.385,-0.061l-0.385,-0.059l-0.387,-0.059l-0.387,-0.057l-0.386,-0.056l-0.388,-0.055l-0.387,-0.053l-0.388,-0.053l-0.389,-0.051l-0.389,-0.05l-0.389,-0.049l-0.39,-0.048l-0.389,-0.047l-0.391,-0.045l-0.392,-0.044l-0.39,-0.043l-0.391,-0.042l-0.393,-0.04l-0.392,-0.039l-0.393,-0.038l-0.393,-0.037l-0.393,-0.036l-0.394,-0.034l-0.395,-0.033l-0.394,-0.032l-0.395,-0.031l-0.395,-0.03l-0.396,-0.028l-0.396,-0.027l-0.396,-0.026l-0.397,-0.024l-0.397,-0.024l-0.398,-0.022l-0.398,-0.02l-0.398,-0.02l-0.398,-0.018l-0.399,-0.017l-0.399,-0.016l-0.4,-0.015l-0.4,-0.013l-0.4,-0.012l-0.401,-0.011l-0.401,-0.01l-0.401,-0.008l-0.402,-0.007l-0.402,-0.006l-0.402,-0.004l-0.402,-0.003l-0.404,-0.002l-0.403,-0.001l-0.403,0.001Z"/><path d="M148.5,16.515l-34.5,142.603l46.5,-27.162l-41.25,132.794c0,0 -111.972,-2.681 -111,-113.931c1.456,-166.717 139.712,-134.326 140.25,-134.304Z"/></g></g></svg>