<?xml version="1.0" encoding="UTF-8" standalone="no"?><!DOCTYPE svg PUBLIC "-//W3C//DTD SVG 1.1//EN" "http://www.w3.org/Graphics/SVG/1.1/DTD/svg11.dtd"><svg width="100%" height="100%" viewBox="0 0 357 282" version="1.1" xmlns="http://www.w3.org/2000/svg" xmlns:xlink="http://www.w3.org/1999/xlink" xml:space="preserve" xmlns:serif="http://www.serif.com/" style="fill-rule:evenodd;clip-rule:evenodd;stroke-linecap:round;stroke-linejoin:round;stroke-miterlimit:1.5;"><rect id="_3330" serif:id="3330" x="0" y="0" width="357" height="282" style="fill:none;"/><clipPath id="_clip1"><rect x="0" y="0" width="357" height="282"/></clipPath><g clip-path="url(#_clip1)"><path d="M357,282l-357,0l0,-282l357,0l0,282Zm-338.284,-263.284l0,244.568l319.568,0l0,-244.568l-319.568,0Z"/><path d="M18.788,145.717c-0.487,-9.99 -0.704,-39.135 23.962,-67.717c24.885,-28.836 63.75,-30.75 63.75,-30.75l140.25,0c0,0 33.39,-1.383 60,23.25c22.256,20.602 30.942,44.68 31.5,65.25c0.516,19.046 -4.927,47.721 -25.5,69.75c-24.828,26.585 -58.5,30 -58.5,30l-152.25,-0.75c0,0 -32.855,-3.304 -55.5,-26.25c-19.981,-20.246 -26.679,-41.603 -27.712,-62.783Z" style="fill:none;stroke:#000;stroke-width:19.8px;"/></g></svg>