<?xml version="1.0" encoding="UTF-8" standalone="no"?><!DOCTYPE svg PUBLIC "-//W3C//DTD SVG 1.1//EN" "http://www.w3.org/Graphics/SVG/1.1/DTD/svg11.dtd"><svg width="100%" height="100%" viewBox="0 0 493 282" version="1.1" xmlns="http://www.w3.org/2000/svg" xmlns:xlink="http://www.w3.org/1999/xlink" xml:space="preserve" xmlns:serif="http://www.serif.com/" style="fill-rule:evenodd;clip-rule:evenodd;stroke-linejoin:round;stroke-miterlimit:1.5;"><rect id="_3345" serif:id="3345" x="0" y="0" width="492.75" height="282" style="fill:none;"/><clipPath id="_clip1"><rect x="0" y="0" width="492.75" height="282"/></clipPath><g clip-path="url(#_clip1)"><text x="359.731px" y="272.62px" style="font-family:'ArialMT', 'Arial', sans-serif;font-size:175.239px;">C</text><g><path d="M181.235,44.198l0.275,0.003l0.275,0.003l0.275,0.006l0.275,0.006l0.276,0.008l0.275,0.009l0.276,0.011l0.277,0.012l0.276,0.014l0.277,0.015l0.277,0.016l0.278,0.018l0.278,0.019l0.278,0.021l0.278,0.022l0.279,0.024l0.279,0.025l0.279,0.026l0.279,0.028l0.28,0.029l0.281,0.031l0.28,0.032l0.281,0.033l0.281,0.035l0.282,0.037l0.282,0.038l0.283,0.039l0.282,0.041l0.284,0.042l0.283,0.044l0.284,0.045l0.284,0.047l0.285,0.048l0.285,0.049l0.286,0.052l0.286,0.052l0.286,0.054l0.287,0.056l0.288,0.057l0.287,0.058l0.289,0.06l0.288,0.061l0.289,0.063l0.29,0.065l0.29,0.066l0.291,0.067l0.291,0.069l0.291,0.071l0.292,0.072l0.293,0.073l0.293,0.075l0.293,0.076l0.295,0.078l0.294,0.08l0.295,0.081l0.296,0.083l0.296,0.084l0.297,0.085l0.297,0.088l0.298,0.088l0.299,0.091l0.299,0.091l0.299,0.094l0.301,0.095l0.301,0.096l0.301,0.098l0.302,0.1l0.303,0.101l0.303,0.102l0.304,0.105l0.304,0.105l0.305,0.108l0.306,0.109l0.306,0.11l0.307,0.112l0.308,0.114l0.308,0.115l0.309,0.117l0.31,0.118l0.31,0.12l0.311,0.122l0.312,0.123l0.313,0.125l0.313,0.126l0.314,0.128l0.314,0.13l0.315,0.131l0.316,0.133l0.317,0.134l0.318,0.136l0.318,0.138l0.319,0.139l0.319,0.141l0.321,0.142l0.321,0.144l0.322,0.146l0.323,0.147l0.323,0.149l0.325,0.151l0.325,0.152l0.326,0.154l0.326,0.156l0.328,0.157l0.328,0.159l0.329,0.16l0.33,0.162l0.331,0.164l0.332,0.166l0.332,0.167l0.334,0.169l0.334,0.17l0.335,0.172l0.336,0.174l0.337,0.175l0.338,0.177l0.338,0.179l0.34,0.181l0.34,0.182l0.248,0.134l0.246,0.135l0.245,0.136l0.243,0.137l0.242,0.139l0.241,0.14l0.239,0.14l0.238,0.142l0.236,0.143l0.236,0.144l0.234,0.145l0.232,0.147l0.232,0.147l0.23,0.149l0.229,0.15l0.227,0.151l0.227,0.152l0.225,0.153l0.224,0.154l0.223,0.156l0.222,0.156l0.22,0.158l0.219,0.159l0.219,0.16l0.217,0.161l0.216,0.162l0.215,0.163l0.214,0.165l0.213,0.165l0.212,0.167l0.21,0.168l0.21,0.169l0.209,0.17l0.208,0.171l0.206,0.172l0.206,0.174l0.205,0.174l0.204,0.176l0.203,0.177l0.202,0.178l0.201,0.179l0.201,0.18l0.199,0.181l0.199,0.183l0.197,0.183l0.197,0.185l0.197,0.185l0.195,0.187l0.194,0.188l0.194,0.19l0.193,0.19l0.192,0.191l0.192,0.193l0.191,0.193l0.19,0.195l0.189,0.196l0.189,0.197l0.188,0.198l0.188,0.199l0.186,0.2l0.187,0.202l0.185,0.202l0.185,0.204l0.184,0.205l0.184,0.205l0.183,0.207l0.183,0.209l0.182,0.209l0.182,0.21l0.181,0.212l0.181,0.212l0.18,0.214l0.18,0.214l0.179,0.216l0.179,0.217l0.178,0.218l0.178,0.22l0.178,0.22l0.177,0.221l0.177,0.223l0.177,0.224l0.176,0.224l0.176,0.226l0.175,0.227l0.176,0.228l0.175,0.229l0.174,0.231l0.175,0.231l0.174,0.232l0.174,0.234l0.174,0.235l0.174,0.236l0.173,0.236l0.173,0.238l0.173,0.24l0.173,0.24l0.173,0.241l0.172,0.243l0.173,0.243l0.172,0.245l0.173,0.245l0.172,0.247l0.172,0.248l0.173,0.249l0.172,0.25l0.172,0.252l0.172,0.252l0.172,0.253l0.172,0.255l0.173,0.255l0.344,0.515l0.345,0.519l0.346,0.523l0.346,0.528l0.347,0.532l0.347,0.536l0.348,0.541l0.35,0.545l0.35,0.55l0.096,0.153l0.096,0.153l0.095,0.154l0.095,0.155l0.093,0.156l0.093,0.157l0.093,0.157l0.091,0.158l0.091,0.159l0.091,0.16l0.089,0.16l0.089,0.161l0.089,0.162l0.087,0.163l0.087,0.163l0.087,0.164l0.085,0.164l0.085,0.166l0.085,0.166l0.084,0.166l0.083,0.167l0.082,0.168l0.082,0.168l0.082,0.169l0.08,0.17l0.08,0.17l0.08,0.171l0.078,0.171l0.078,0.172l0.078,0.172l0.077,0.173l0.076,0.173l0.076,0.174l0.075,0.174l0.074,0.175l0.074,0.175l0.073,0.176l0.073,0.176l0.072,0.176l0.072,0.177l0.071,0.177l0.07,0.178l0.07,0.178l0.069,0.179l0.068,0.178l0.068,0.18l0.068,0.179l0.066,0.18l0.067,0.18l0.065,0.18l0.065,0.181l0.065,0.181l0.064,0.181l0.063,0.181l0.063,0.182l0.062,0.182l0.062,0.182l0.061,0.183l0.061,0.182l0.06,0.183l0.06,0.183l0.059,0.183l0.116,0.366l0.115,0.368l0.112,0.367l0.11,0.368l0.108,0.368l0.106,0.368l0.104,0.369l0.102,0.368l0.1,0.368l0.098,0.368l0.096,0.368l0.094,0.367l0.092,0.367l0.09,0.366l0.089,0.365l0.086,0.365l0.085,0.364l0.083,0.363l0.081,0.362l0.079,0.361l0.077,0.36l0.076,0.358l0.074,0.357l0.073,0.356l0.07,0.354l0.069,0.352l0.068,0.35l0.065,0.349l0.064,0.347l0.063,0.345l0.061,0.343l0.059,0.34l0.058,0.338l0.056,0.336l0.055,0.333l0.054,0.331l0.051,0.328l0.051,0.326l0.049,0.322l0.048,0.32l0.046,0.317l0.045,0.313l0.044,0.311l0.042,0.307l0.041,0.304l0.04,0.3l0.038,0.297l0.037,0.293l0.036,0.289l0.035,0.285l0.034,0.282l0.032,0.278l0.031,0.273l0.031,0.27l0.029,0.265l0.028,0.26l0.026,0.257l0.026,0.251l0.025,0.247l0.047,0.48l0.043,0.46l0.039,0.44l0.035,0.419l0.032,0.397l0.029,0.375l0.026,0.351l0.023,0.328l0.02,0.302l0.017,0.278l0.015,0.251l0.012,0.224l0.011,0.197l0.015,0.308l0.008,0.189l0.002,0.064l-18.75,114.75l-106.5,0l-18.75,-112.5l-0.003,-0.051l-0.006,-0.153l-0.003,-0.113l-0.004,-0.137l-0.004,-0.161l-0.003,-0.185l-0.002,-0.208l-0.001,-0.23l0,-0.253l0.001,-0.275l0.004,-0.296l0.005,-0.318l0.008,-0.338l0.011,-0.36l0.006,-0.187l0.007,-0.192l0.008,-0.197l0.009,-0.203l0.009,-0.207l0.011,-0.211l0.011,-0.217l0.013,-0.221l0.013,-0.226l0.015,-0.231l0.015,-0.235l0.017,-0.24l0.018,-0.245l0.019,-0.249l0.02,-0.253l0.022,-0.258l0.022,-0.262l0.024,-0.266l0.026,-0.271l0.027,-0.274l0.028,-0.279l0.03,-0.283l0.031,-0.287l0.032,-0.292l0.035,-0.295l0.036,-0.299l0.037,-0.303l0.039,-0.307l0.041,-0.31l0.042,-0.315l0.045,-0.318l0.046,-0.321l0.048,-0.326l0.049,-0.329l0.052,-0.332l0.054,-0.336l0.055,-0.339l0.058,-0.343l0.059,-0.346l0.062,-0.35l0.064,-0.353l0.066,-0.355l0.068,-0.36l0.07,-0.362l0.072,-0.365l0.075,-0.368l0.077,-0.372l0.08,-0.374l0.081,-0.377l0.085,-0.38l0.086,-0.383l0.089,-0.386l0.092,-0.388l0.094,-0.391l0.097,-0.394l0.099,-0.396l0.102,-0.399l0.105,-0.402l0.108,-0.403l0.11,-0.407l0.113,-0.408l0.115,-0.411l0.119,-0.413l0.122,-0.416l0.124,-0.417l0.127,-0.42l0.065,-0.211l0.066,-0.211l0.066,-0.212l0.067,-0.212l0.068,-0.213l0.069,-0.213l0.069,-0.213l0.07,-0.215l0.071,-0.214l0.072,-0.215l0.072,-0.216l0.074,-0.216l0.074,-0.217l0.075,-0.217l0.075,-0.217l0.077,-0.218l0.077,-0.218l0.079,-0.219l0.079,-0.219l0.079,-0.22l0.081,-0.22l0.082,-0.22l0.082,-0.221l0.083,-0.221l0.084,-0.221l0.085,-0.222l0.086,-0.223l0.086,-0.222l0.088,-0.224l0.088,-0.223l0.089,-0.224l0.09,-0.224l0.091,-0.224l0.092,-0.225l0.093,-0.225l0.094,-0.226l0.094,-0.226l0.096,-0.226l0.096,-0.226l0.098,-0.227l0.098,-0.227l0.099,-0.228l0.1,-0.227l0.101,-0.228l0.102,-0.228l0.103,-0.229l0.104,-0.229l0.104,-0.229l0.106,-0.229l0.107,-0.229l0.107,-0.23l0.109,-0.23l0.11,-0.23l0.11,-0.231l0.112,-0.23l0.112,-0.231l0.114,-0.231l0.114,-0.232l0.116,-0.231l0.116,-0.232l0.139,-0.274l0.139,-0.273l0.141,-0.272l0.14,-0.272l0.142,-0.27l0.142,-0.27l0.143,-0.269l0.144,-0.268l0.145,-0.267l0.146,-0.266l0.146,-0.265l0.147,-0.265l0.148,-0.263l0.15,-0.263l0.15,-0.262l0.151,-0.261l0.152,-0.261l0.153,-0.259l0.155,-0.259l0.155,-0.258l0.156,-0.257l0.158,-0.257l0.159,-0.256l0.16,-0.255l0.161,-0.254l0.162,-0.253l0.164,-0.253l0.165,-0.252l0.166,-0.251l0.168,-0.251l0.169,-0.25l0.171,-0.249l0.171,-0.248l0.174,-0.248l0.174,-0.247l0.177,-0.247l0.177,-0.245l0.18,-0.245l0.181,-0.245l0.182,-0.244l0.184,-0.243l0.186,-0.242l0.187,-0.242l0.189,-0.241l0.191,-0.241l0.192,-0.24l0.195,-0.239l0.196,-0.239l0.197,-0.238l0.2,-0.238l0.202,-0.237l0.203,-0.236l0.206,-0.236l0.207,-0.235l0.209,-0.235l0.211,-0.234l0.214,-0.234l0.215,-0.233l0.217,-0.233l0.22,-0.232l0.221,-0.232l0.224,-0.231l0.226,-0.23l0.228,-0.23l0.23,-0.23l0.233,-0.229l0.234,-0.229l0.237,-0.228l0.24,-0.228l0.241,-0.227l0.244,-0.227l0.247,-0.226l0.249,-0.226l0.251,-0.226l0.254,-0.225l0.256,-0.224l0.258,-0.225l0.262,-0.224l0.264,-0.223l0.266,-0.223l0.269,-0.223l0.272,-0.222l0.274,-0.222l0.277,-0.222l0.279,-0.221l0.283,-0.221l0.285,-0.221l0.288,-0.22l0.291,-0.22l0.293,-0.22l0.297,-0.219l0.299,-0.219l0.302,-0.219l0.305,-0.218l0.309,-0.218l0.311,-0.218l0.314,-0.218l0.317,-0.217l0.32,-0.217l0.323,-0.217l0.327,-0.216l0.329,-0.216l0.333,-0.217l0.336,-0.215l0.339,-0.216l0.342,-0.215l0.345,-0.216l0.349,-0.215l0.352,-0.214l0.356,-0.215l0.359,-0.214l0.362,-0.215l0.365,-0.214l0.369,-0.214l0.373,-0.213l0.376,-0.214l0.379,-0.213l0.383,-0.214l0.387,-0.213l0.39,-0.213l0.393,-0.213l0.398,-0.213l0.401,-0.213l0.404,-0.212l0.409,-0.213l0.412,-0.212l0.415,-0.213l0.42,-0.212l0.635,-0.319l0.616,-0.308l0.597,-0.296l0.58,-0.286l0.563,-0.275l0.275,-0.133l0.272,-0.131l0.267,-0.129l0.264,-0.126l0.26,-0.123l0.256,-0.121l0.253,-0.119l0.25,-0.116l0.246,-0.113l0.243,-0.112l0.239,-0.109l0.237,-0.106l0.233,-0.105l0.231,-0.102l0.228,-0.1l0.225,-0.098l0.222,-0.095l0.22,-0.094l0.217,-0.091l0.215,-0.089l0.213,-0.087l0.211,-0.085l0.208,-0.084l0.206,-0.081l0.205,-0.079l0.202,-0.077l0.201,-0.076l0.199,-0.073l0.197,-0.072l0.196,-0.07l0.195,-0.068l0.193,-0.066l0.192,-0.064l0.191,-0.063l0.189,-0.062l0.189,-0.059l0.188,-0.058l0.187,-0.056l0.186,-0.055l0.186,-0.053l0.185,-0.052l0.185,-0.05l0.184,-0.049l0.184,-0.047l0.184,-0.046l0.183,-0.045l0.184,-0.043l0.184,-0.042l0.183,-0.041l0.185,-0.039l0.184,-0.038l0.185,-0.037l0.185,-0.036l0.186,-0.034l0.187,-0.034l0.187,-0.032l0.188,-0.031l0.19,-0.031l0.19,-0.029l0.191,-0.028l0.193,-0.027l0.194,-0.027l0.195,-0.025l0.196,-0.025l0.199,-0.023l0.2,-0.023l0.201,-0.022l0.204,-0.021l0.205,-0.021l0.207,-0.02l0.21,-0.019l0.211,-0.018l0.214,-0.018l0.216,-0.018l0.219,-0.016l0.221,-0.016l0.224,-0.016l0.226,-0.015l0.229,-0.015l0.232,-0.014l0.235,-0.014l0.239,-0.013l0.485,-0.026l0.499,-0.024l0.513,-0.024l0.527,-0.022l0.543,-0.023l0.559,-0.021l0.576,-0.022l0.593,-0.022l1.241,-0.045l1.319,-0.048l0.691,-0.025l0.712,-0.027l0.735,-0.029l0.758,-0.03l0.781,-0.033l0.806,-0.035l0.273,-0.011l0.273,-0.01l0.273,-0.009l0.273,-0.007l0.273,-0.006l0.274,-0.005l0.273,-0.003l0.274,-0.001l0.275,-0.001l0.274,0.001Zm-0.476,18.715l-0.179,0.002l-0.181,0.002l-0.179,0.003l-0.178,0.003l-0.179,0.005l-0.18,0.006l-0.179,0.006l-0.21,0.009l-0.805,0.035l-0.81,0.034l-0.782,0.031l-0.757,0.03l-0.731,0.028l-0.706,0.026l-1.328,0.048l-1.237,0.045l-0.578,0.021l-0.554,0.021l-0.53,0.021l-0.504,0.02l-0.482,0.021l-0.457,0.021l-0.433,0.021l-0.417,0.022l-0.187,0.011l-0.191,0.011l-0.181,0.011l-0.178,0.011l-0.172,0.012l-0.166,0.011l-0.163,0.012l-0.154,0.012l-0.146,0.012l-0.145,0.012l-0.138,0.012l-0.133,0.012l-0.129,0.012l-0.119,0.012l-0.12,0.013l-0.114,0.012l-0.106,0.012l-0.1,0.012l-0.1,0.013l-0.097,0.012l-0.088,0.012l-0.085,0.012l-0.086,0.013l-0.078,0.012l-0.079,0.013l-0.072,0.012l-0.065,0.011l-0.07,0.012l-0.065,0.013l-0.065,0.012l-0.065,0.013l-0.056,0.012l-0.058,0.012l-0.063,0.014l-0.055,0.012l-0.057,0.014l-0.064,0.015l-0.055,0.014l-0.06,0.015l-0.059,0.016l-0.059,0.016l-0.065,0.018l-0.063,0.018l-0.064,0.019l-0.07,0.021l-0.072,0.023l-0.071,0.022l-0.081,0.026l-0.082,0.027l-0.083,0.028l-0.082,0.028l-0.091,0.032l-0.095,0.034l-0.097,0.035l-0.105,0.039l-0.106,0.04l-0.108,0.041l-0.111,0.043l-0.123,0.048l-0.132,0.053l-0.126,0.051l-0.127,0.052l-0.148,0.061l-0.142,0.06l-0.144,0.061l-0.164,0.071l-0.158,0.068l-0.161,0.071l-0.173,0.076l-0.182,0.082l-0.178,0.08l-0.182,0.083l-0.199,0.091l-0.195,0.09l-0.199,0.093l-0.209,0.098l-0.22,0.104l-0.224,0.106l-0.221,0.105l-0.23,0.111l-0.234,0.113l-0.238,0.115l-0.515,0.252l-0.526,0.259l-0.553,0.274l-0.572,0.286l-0.592,0.297l-0.364,0.185l-0.351,0.179l-0.348,0.179l-0.347,0.181l-0.338,0.178l-0.333,0.176l-0.333,0.179l-0.328,0.177l-0.325,0.178l-0.315,0.173l-0.314,0.176l-0.311,0.174l-0.306,0.175l-0.302,0.173l-0.296,0.171l-0.293,0.172l-0.294,0.174l-0.29,0.173l-0.28,0.169l-0.274,0.168l-0.277,0.17l-0.278,0.173l-0.263,0.165l-0.264,0.168l-0.266,0.172l-0.25,0.162l-0.251,0.165l-0.254,0.168l-0.244,0.164l-0.245,0.166l-0.243,0.167l-0.232,0.16l-0.227,0.159l-0.23,0.163l-0.234,0.167l-0.223,0.162l-0.212,0.155l-0.215,0.159l-0.219,0.164l-0.216,0.163l-0.204,0.156l-0.201,0.155l-0.205,0.161l-0.194,0.153l-0.197,0.159l-0.202,0.163l-0.184,0.15l-0.188,0.156l-0.193,0.161l-0.173,0.147l-0.178,0.153l-0.183,0.159l-0.18,0.157l-0.169,0.15l-0.174,0.156l-0.171,0.155l-0.16,0.147l-0.166,0.155l-0.162,0.152l-0.159,0.152l-0.157,0.151l-0.155,0.151l-0.151,0.149l-0.157,0.156l-0.156,0.157l-0.144,0.147l-0.15,0.156l-0.148,0.154l-0.137,0.145l-0.143,0.153l-0.14,0.152l-0.14,0.153l-0.136,0.151l-0.142,0.16l-0.133,0.151l-0.13,0.149l-0.138,0.159l-0.126,0.149l-0.133,0.158l-0.132,0.159l-0.129,0.157l-0.127,0.157l-0.118,0.147l-0.124,0.157l-0.131,0.167l-0.122,0.157l-0.119,0.156l-0.126,0.167l-0.126,0.167l-0.115,0.155l-0.113,0.156l-0.121,0.167l-0.128,0.179l-0.11,0.155l-0.117,0.167l-0.124,0.179l-0.106,0.155l-0.113,0.167l-0.12,0.18l-0.12,0.181l-0.11,0.168l-0.117,0.181l-0.116,0.18l-0.107,0.169l-0.114,0.182l-0.113,0.182l-0.112,0.182l-0.111,0.183l-0.111,0.184l-0.117,0.197l-0.109,0.184l-0.108,0.185l-0.123,0.212l-0.106,0.186l-0.106,0.186l-0.113,0.201l-0.112,0.201l-0.119,0.216l-0.103,0.189l-0.11,0.203l-0.117,0.218l-0.109,0.205l-0.109,0.205l-0.115,0.221l-0.115,0.22l-0.107,0.208l-0.114,0.223l-0.107,0.212l-0.09,0.179l-0.093,0.187l-0.084,0.17l-0.091,0.186l-0.091,0.185l-0.089,0.184l-0.081,0.168l-0.079,0.167l-0.095,0.202l-0.078,0.166l-0.085,0.183l-0.085,0.183l-0.074,0.164l-0.083,0.182l-0.082,0.182l-0.081,0.181l-0.072,0.163l-0.079,0.18l-0.079,0.18l-0.077,0.18l-0.077,0.178l-0.076,0.179l-0.076,0.178l-0.066,0.159l-0.073,0.177l-0.073,0.177l-0.072,0.176l-0.071,0.175l-0.07,0.175l-0.078,0.195l-0.069,0.173l-0.06,0.154l-0.067,0.173l-0.067,0.172l-0.065,0.172l-0.073,0.192l-0.065,0.171l-0.055,0.149l-0.063,0.17l-0.069,0.189l-0.069,0.189l-0.053,0.147l-0.059,0.167l-0.067,0.188l-0.058,0.165l-0.058,0.165l-0.057,0.165l-0.063,0.185l-0.056,0.163l-0.054,0.163l-0.054,0.161l-0.06,0.183l-0.053,0.16l-0.052,0.161l-0.058,0.181l-0.05,0.157l-0.057,0.18l-0.05,0.157l-0.048,0.156l-0.049,0.158l-0.102,0.339l-0.101,0.34l-0.096,0.325l-0.089,0.31l-0.093,0.33l-0.087,0.316l-0.085,0.312l-0.088,0.333l-0.083,0.318l-0.078,0.302l-0.074,0.298l-0.079,0.32l-0.076,0.316l-0.068,0.288l-0.071,0.309l-0.069,0.305l-0.064,0.289l-0.065,0.298l-0.062,0.294l-0.06,0.29l-0.061,0.3l-0.057,0.282l-0.053,0.278l-0.052,0.273l-0.052,0.283l-0.051,0.279l-0.046,0.26l-0.049,0.285l-0.044,0.265l-0.043,0.261l-0.041,0.256l-0.041,0.267l-0.04,0.262l-0.036,0.242l-0.034,0.235l-0.034,0.248l-0.035,0.259l-0.031,0.237l-0.029,0.231l-0.03,0.244l-0.027,0.22l-0.025,0.215l-0.027,0.246l-0.023,0.203l-0.022,0.216l-0.023,0.229l-0.018,0.185l-0.019,0.198l-0.019,0.212l-0.018,0.206l-0.017,0.2l-0.013,0.172l-0.015,0.188l-0.015,0.202l-0.01,0.152l-0.011,0.167l-0.012,0.183l-0.01,0.177l-0.009,0.145l-0.007,0.139l-0.009,0.181l-0.007,0.149l-0.005,0.113l-0.006,0.162l-0.006,0.153l-0.003,0.092l-0.007,0.248l-0.006,0.237l-0.003,0.2l-0.001,0.103l15.913,95.479l74.739,0l15.852,-97.013l-0.009,-0.118l-0.023,-0.303l-0.026,-0.317l-0.029,-0.344l-0.033,-0.37l-0.035,-0.383l-0.039,-0.396l-0.021,-0.204l-0.022,-0.222l-0.022,-0.206l-0.023,-0.212l-0.024,-0.217l-0.027,-0.242l-0.026,-0.227l-0.027,-0.231l-0.028,-0.237l-0.027,-0.222l-0.033,-0.264l-0.031,-0.249l-0.031,-0.236l-0.034,-0.257l-0.033,-0.244l-0.034,-0.248l-0.038,-0.269l-0.039,-0.272l-0.04,-0.275l-0.036,-0.246l-0.041,-0.265l-0.044,-0.285l-0.043,-0.271l-0.044,-0.274l-0.043,-0.261l-0.047,-0.28l-0.048,-0.282l-0.05,-0.284l-0.051,-0.287l-0.049,-0.273l-0.051,-0.276l-0.056,-0.292l-0.056,-0.294l-0.055,-0.281l-0.056,-0.283l-0.058,-0.284l-0.06,-0.286l-0.063,-0.301l-0.062,-0.287l-0.06,-0.274l-0.065,-0.29l-0.066,-0.29l-0.068,-0.29l-0.066,-0.278l-0.07,-0.291l-0.072,-0.291l-0.07,-0.278l-0.071,-0.278l-0.076,-0.291l-0.073,-0.277l-0.076,-0.277l-0.08,-0.289l-0.074,-0.263l-0.079,-0.274l-0.08,-0.274l-0.082,-0.273l-0.083,-0.271l-0.084,-0.27l-0.089,-0.282l-0.037,-0.114l-0.041,-0.127l-0.042,-0.126l-0.042,-0.126l-0.042,-0.125l-0.042,-0.125l-0.052,-0.149l-0.042,-0.125l-0.043,-0.123l-0.044,-0.123l-0.035,-0.097l-0.052,-0.146l-0.044,-0.121l-0.045,-0.121l-0.053,-0.145l-0.036,-0.093l-0.045,-0.119l-0.044,-0.117l-0.046,-0.117l-0.045,-0.116l-0.046,-0.116l-0.056,-0.139l-0.036,-0.089l-0.046,-0.114l-0.046,-0.112l-0.047,-0.111l-0.046,-0.111l-0.047,-0.11l-0.047,-0.108l-0.036,-0.084l-0.048,-0.107l-0.058,-0.13l-0.047,-0.105l-0.036,-0.08l-0.047,-0.103l-0.048,-0.102l-0.047,-0.101l-0.048,-0.099l-0.036,-0.075l-0.048,-0.099l-0.059,-0.12l-0.035,-0.071l-0.036,-0.072l-0.06,-0.117l-0.047,-0.091l-0.035,-0.068l-0.047,-0.089l-0.035,-0.066l-0.048,-0.088l-0.058,-0.107l-0.035,-0.063l-0.034,-0.061l-0.046,-0.081l-0.047,-0.081l-0.046,-0.08l-0.045,-0.078l-0.032,-0.054l-0.046,-0.076l-0.045,-0.074l-0.031,-0.05l-0.044,-0.071l-0.05,-0.079l-0.315,-0.494l-0.328,-0.512l-0.326,-0.507l-0.317,-0.489l-0.317,-0.486l-0.315,-0.48l-0.313,-0.475l-0.313,-0.47l-0.313,-0.467l-0.146,-0.218l-0.152,-0.224l-0.15,-0.221l-0.151,-0.221l-0.151,-0.22l-0.15,-0.218l-0.15,-0.218l-0.15,-0.216l-0.142,-0.202l-0.15,-0.214l-0.149,-0.212l-0.15,-0.211l-0.149,-0.21l-0.131,-0.183l-0.15,-0.207l-0.149,-0.206l-0.14,-0.193l-0.149,-0.203l-0.14,-0.19l-0.139,-0.189l-0.149,-0.2l-0.14,-0.187l-0.139,-0.184l-0.139,-0.183l-0.14,-0.183l-0.139,-0.182l-0.13,-0.168l-0.149,-0.191l-0.139,-0.178l-0.13,-0.164l-0.14,-0.175l-0.139,-0.174l-0.139,-0.173l-0.14,-0.172l-0.129,-0.158l-0.13,-0.158l-0.14,-0.168l-0.13,-0.155l-0.14,-0.166l-0.139,-0.164l-0.12,-0.14l-0.131,-0.151l-0.14,-0.162l-0.131,-0.148l-0.13,-0.147l-0.14,-0.157l-0.131,-0.146l-0.121,-0.133l-0.131,-0.143l-0.131,-0.142l-0.132,-0.141l-0.132,-0.14l-0.122,-0.128l-0.132,-0.138l-0.132,-0.137l-0.122,-0.125l-0.133,-0.135l-0.134,-0.134l-0.122,-0.122l-0.124,-0.123l-0.135,-0.131l-0.134,-0.13l-0.124,-0.118l-0.114,-0.109l-0.127,-0.118l-0.136,-0.126l-0.135,-0.125l-0.117,-0.106l-0.127,-0.114l-0.127,-0.113l-0.129,-0.113l-0.128,-0.112l-0.119,-0.103l-0.14,-0.119l-0.129,-0.109l-0.122,-0.101l-0.121,-0.1l-0.131,-0.107l-0.133,-0.107l-0.124,-0.099l-0.124,-0.097l-0.135,-0.105l-0.135,-0.104l-0.117,-0.089l-0.128,-0.096l-0.147,-0.109l-0.128,-0.094l-0.121,-0.087l-0.131,-0.094l-0.132,-0.093l-0.142,-0.099l-0.134,-0.093l-0.125,-0.085l-0.136,-0.091l-0.137,-0.091l-0.138,-0.09l-0.131,-0.085l-0.141,-0.089l-0.141,-0.089l-0.134,-0.083l-0.135,-0.083l-0.146,-0.088l-0.147,-0.088l-0.139,-0.082l-0.141,-0.082l-0.143,-0.081l-0.152,-0.086l-0.145,-0.081l-0.148,-0.081l-0.165,-0.089l-0.283,-0.152l-0.293,-0.156l-0.287,-0.151l-0.291,-0.153l-0.295,-0.153l-0.288,-0.15l-0.281,-0.144l-0.287,-0.146l-0.284,-0.144l-0.283,-0.142l-0.289,-0.144l-0.275,-0.136l-0.274,-0.135l-0.284,-0.139l-0.278,-0.134l-0.27,-0.13l-0.274,-0.13l-0.275,-0.13l-0.266,-0.125l-0.272,-0.126l-0.27,-0.124l-0.269,-0.123l-0.261,-0.118l-0.261,-0.117l-0.273,-0.121l-0.258,-0.114l-0.257,-0.112l-0.267,-0.116l-0.255,-0.109l-0.255,-0.108l-0.257,-0.108l-0.252,-0.105l-0.25,-0.103l-0.255,-0.104l-0.254,-0.103l-0.248,-0.099l-0.245,-0.096l-0.244,-0.096l-0.25,-0.096l-0.243,-0.093l-0.241,-0.092l-0.246,-0.091l-0.239,-0.089l-0.239,-0.087l-0.236,-0.085l-0.242,-0.086l-0.235,-0.083l-0.233,-0.081l-0.234,-0.08l-0.231,-0.078l-0.235,-0.079l-0.225,-0.074l-0.229,-0.074l-0.232,-0.075l-0.222,-0.07l-0.226,-0.07l-0.229,-0.071l-0.223,-0.067l-0.219,-0.065l-0.221,-0.065l-0.22,-0.064l-0.22,-0.062l-0.218,-0.061l-0.213,-0.059l-0.221,-0.059l-0.216,-0.057l-0.21,-0.055l-0.214,-0.055l-0.208,-0.052l-0.212,-0.052l-0.211,-0.051l-0.211,-0.05l-0.209,-0.049l-0.203,-0.046l-0.204,-0.045l-0.207,-0.045l-0.206,-0.044l-0.201,-0.042l-0.203,-0.041l-0.2,-0.04l-0.203,-0.039l-0.201,-0.038l-0.198,-0.037l-0.196,-0.035l-0.196,-0.034l-0.198,-0.033l-0.198,-0.033l-0.194,-0.031l-0.194,-0.029l-0.192,-0.029l-0.195,-0.028l-0.195,-0.027l-0.187,-0.026l-0.19,-0.024l-0.192,-0.024l-0.19,-0.023l-0.187,-0.021l-0.189,-0.021l-0.191,-0.02l-0.184,-0.018l-0.186,-0.018l-0.188,-0.016l-0.184,-0.016l-0.187,-0.015l-0.184,-0.014l-0.184,-0.012l-0.183,-0.012l-0.183,-0.011l-0.185,-0.01l-0.182,-0.009l-0.181,-0.008l-0.182,-0.007l-0.182,-0.006l-0.181,-0.005l-0.181,-0.005l-0.181,-0.003l-0.181,-0.003l-0.179,-0.001l-0.179,-0.001l-0.181,0Z"/><path d="M119.25,115.5l118.5,0" style="fill:none;stroke:#000;stroke-width:18.72px;"/><path d="M357,282l-357,0l0,-282l357,0l0,282Zm-338.284,-263.284l0,244.568l319.568,0l0,-244.568l-319.568,0Z"/></g></g></svg>