<?xml version="1.0" encoding="UTF-8" standalone="no"?><!DOCTYPE svg PUBLIC "-//W3C//DTD SVG 1.1//EN" "http://www.w3.org/Graphics/SVG/1.1/DTD/svg11.dtd"><svg width="100%" height="100%" viewBox="0 0 357 282" version="1.1" xmlns="http://www.w3.org/2000/svg" xmlns:xlink="http://www.w3.org/1999/xlink" xml:space="preserve" xmlns:serif="http://www.serif.com/" style="fill-rule:evenodd;clip-rule:evenodd;stroke-linejoin:round;stroke-miterlimit:1.5;"><rect id="_3360" serif:id="3360" x="0" y="0" width="357" height="282" style="fill:none;"/><path d="M357,282l-357,0l0,-282l357,0l0,282Zm-338.284,-263.284l0,244.568l319.568,0l0,-244.568l-319.568,0Z"/><path d="M45,75.75c22,-7.605 42.783,-16.737 66,-16.5c22.424,0.229 46.69,15.165 68.25,25.5c21.484,10.299 42.101,24.09 64.5,25.5c21.112,1.329 46.75,-10.25 69.75,-15.75" style="fill:none;stroke:#000;stroke-width:19.8px;"/><path d="M45,132.75c22,-7.605 42.783,-16.737 66,-16.5c22.424,0.229 46.69,15.165 68.25,25.5c21.484,10.299 42.101,24.09 64.5,25.5c21.112,1.329 46.75,-10.25 69.75,-15.75" style="fill:none;stroke:#000;stroke-width:19.8px;"/><path d="M45,189c22,-7.605 42.783,-16.737 66,-16.5c22.424,0.229 46.69,15.165 68.25,25.5c21.484,10.299 42.101,24.09 64.5,25.5c21.112,1.329 46.75,-10.25 69.75,-15.75" style="fill:none;stroke:#000;stroke-width:19.8px;"/></svg>