<?xml version="1.0" encoding="UTF-8" standalone="no"?><!DOCTYPE svg PUBLIC "-//W3C//DTD SVG 1.1//EN" "http://www.w3.org/Graphics/SVG/1.1/DTD/svg11.dtd"><svg width="100%" height="100%" viewBox="0 0 357 282" version="1.1" xmlns="http://www.w3.org/2000/svg" xmlns:xlink="http://www.w3.org/1999/xlink" xml:space="preserve" xmlns:serif="http://www.serif.com/" style="fill-rule:evenodd;clip-rule:evenodd;stroke-linejoin:round;stroke-miterlimit:1.41421;"><rect id="_3370" serif:id="3370" x="0" y="0" width="357" height="282" style="fill:none;"/><path d="M357,282l-357,0l0,-282l357,0l0,282Zm-338.284,-263.284l0,244.568l319.568,0l0,-244.568l-319.568,0Z"/><path d="M156.519,98.838l-39.186,0l0,39.186l-16.416,0l0,-39.186l-39.186,0l0,-16.417l39.186,0l0,-39.186l16.416,0l0,39.186l39.186,0l0,16.417Z" style="fill-rule:nonzero;stroke:#000;stroke-width:0.75px;"/><path d="M295.269,98.838l-39.186,0l0,39.186l-16.416,0l0,-39.186l-39.186,0l0,-16.417l39.186,0l0,-39.186l16.416,0l0,39.186l39.186,0l0,16.417Z" style="fill-rule:nonzero;stroke:#000;stroke-width:0.75px;"/><path d="M225.519,199.338l-39.186,0l0,39.186l-16.416,0l0,-39.186l-39.186,0l0,-16.417l39.186,0l0,-39.186l16.416,0l0,39.186l39.186,0l0,16.417Z" style="fill-rule:nonzero;stroke:#000;stroke-width:0.75px;"/></svg>