<?xml version="1.0" encoding="UTF-8" standalone="no"?><!DOCTYPE svg PUBLIC "-//W3C//DTD SVG 1.1//EN" "http://www.w3.org/Graphics/SVG/1.1/DTD/svg11.dtd"><svg width="100%" height="100%" viewBox="0 0 357 282" version="1.1" xmlns="http://www.w3.org/2000/svg" xmlns:xlink="http://www.w3.org/1999/xlink" xml:space="preserve" xmlns:serif="http://www.serif.com/" style="fill-rule:evenodd;clip-rule:evenodd;stroke-linejoin:round;stroke-miterlimit:1.41421;"><rect id="_3390" serif:id="3390" x="0" y="0" width="357" height="282" style="fill:none;"/><path d="M357,282l-357,0l0,-282l357,0l0,282Zm-338.284,-263.284l0,244.568l319.568,0l0,-244.568l-319.568,0Z"/><path d="M43.5,165.75l0.75,-3.75l9,-6.75l14.25,-14.25l8.25,-12l9.75,-10.5c0,0 10.289,-8.574 12.539,-10.449c0.321,-0.267 0.961,-0.801 0.961,-0.801c0,0 13.213,-5.7 20.25,-6.75c8.375,-1.25 30,-0.75 30,-0.75l8.25,3l60.75,-5.25c0,0 5.75,-4.879 9,-6.75c4.125,-2.375 15.75,-7.5 15.75,-7.5c0,0 4,-7.625 6,-9.75c1.533,-1.628 6,-3 6,-3l2.25,-12.75l9.75,8.25l3,-9.75c0,0 3.314,2.199 4.5,3.75c1.625,2.125 5.25,9 5.25,9l15,4.5l0.75,8.25l14.25,5.25l4.5,0l0,3.75l-0.75,3l-4.5,2.25l-8.25,0l4.5,5.25l-1.5,0.75c0,0 -7.125,1.125 -10.5,0.75c-3.375,-0.375 -9.75,-3 -9.75,-3l-6.75,9.75l-3,6l-3.75,5.25l0,4.5l-3.75,0.75l-3.75,5.25l-3.75,7.5l-6,3.75l-3.75,5.25l-2.25,6l-4.5,6c0,0 -2.541,1.662 -3,3c-1.5,4.375 -4.875,17.125 -6,23.25c-0.814,4.433 -0.75,13.5 -0.75,13.5l0,11.25c0,0 1.211,4.658 3,6c2,1.5 9,3 9,3l0,3.75l-9,1.5l-10.5,-0.75l-2.25,-3.75c0,0 0.75,-6.25 0,-8.25c-0.686,-1.828 -3.444,-2.108 -4.5,-3.75c-1.125,-1.75 -2.125,-4.382 -2.25,-6.75c-0.125,-2.375 1.606,-4.953 1.5,-7.5c-0.125,-3 -2.125,-7.5 -2.25,-10.5c-0.106,-2.547 1.254,-4.962 1.5,-7.5c0.375,-3.875 0.75,-15.75 0.75,-15.75c0,0 -13.375,-0.25 -18,-0.75c-3.316,-0.358 -6.674,-0.96 -9.75,-2.25c-3.875,-1.625 -13.5,-7.5 -13.5,-7.5l-9.75,0.75l-3.75,-4.5l-12,-2.25c0,0 -4.375,9.5 -6.75,12.75c-1.984,2.716 -4.739,4.829 -7.5,6.75c-2.875,2 -6.875,3.875 -9.75,5.25c-2.429,1.162 -5.445,1.261 -7.5,3c-3.25,2.75 -9.75,9.25 -12,13.5c-1.886,3.563 -1.744,7.976 -1.5,12c0.25,4.125 1.625,9.375 3,12.75c1.151,2.826 3.25,5.875 5.25,7.5c1.841,1.496 5.5,1.5 6.75,2.25c0.678,0.407 1.061,1.523 0.75,2.25c-0.375,0.875 -1.611,2.735 -3,3c-2.625,0.5 -12.75,0 -12.75,0l-3.75,-5.25l-6.75,-4.5l-1.5,-12l-2.25,-11.25l-0.75,-6l0.75,-4.5c0,0 3.323,-2.735 4.5,-4.5c1.5,-2.25 3.625,-6.125 4.5,-9c0.804,-2.642 0.989,-5.499 0.75,-8.25c-0.25,-2.875 -1.375,-6.25 -2.25,-9c-0.816,-2.566 -2.451,-4.864 -3,-7.5c-0.625,-3 -0.983,-6.999 -0.75,-10.5c0.25,-3.75 2.25,-12 2.25,-12l-10.5,9l-7.5,12.75l-3.75,9.75l-7.5,9l-13.5,6l-7.5,0.75l-3.75,-2.25Z"/></svg>