<svg id="logo" xmlns="http://www.w3.org/2000/svg" width="80" height="80" viewBox="0 0 80 80"><defs><style>.cls-1{fill:#008339}.cls-2{fill:#52ae32}</style></defs><title>logo-vrr</title><path class="cls-1" d="M41.714 0v12.64l23.047 13.122v28.037L41.714 67.393V80l33.967-19.354V19.034L41.714 0z"/><path class="cls-2" d="M38.247 0L4.319 19.034v41.612L38.247 80V67.393L15.198 53.799V25.762L38.247 12.64V0z"/><path class="cls-1" d="M20.294 33.325h3.482l3.424 9.078h.039l3.483-9.078h3.267l-5.713 13.851h-2.445l-5.537-13.851zM38.487 39.057h1.8c1.115 0 2.564-.039 2.564-1.546 0-1.389-1.253-1.604-2.368-1.604h-1.996zm-3.052-5.732h5.361c2.837 0 5.223.978 5.223 4.205a3.567 3.567 0 0 1-2.993 3.797l3.522 5.85H42.89l-2.896-5.537h-1.507v5.537h-3.052zM51.163 39.057h1.801c1.115 0 2.563-.039 2.563-1.546 0-1.389-1.252-1.604-2.368-1.604h-1.995zm-3.051-5.732h5.361c2.836 0 5.223.978 5.223 4.205a3.566 3.566 0 0 1-2.994 3.797l3.523 5.85h-3.658l-2.898-5.537h-1.505v5.537h-3.052z"/></svg>