<svg width="479" height="479" clip-rule="evenodd" fill-rule="evenodd" image-rendering="optimizeQuality" shape-rendering="geometricPrecision" text-rendering="geometricPrecision" viewBox="0 0 451.56 450.43" xml:space="preserve" xmlns="http://www.w3.org/2000/svg">
 <defs>
  <style type="text/css">
   <![CDATA[
    .str0 {stroke:black;stroke-width:1.88356}
    .fil2 {fill:#009933}
    .fil0 {fill:white}
    .fil3 {fill:black}
    .fil1 {fill:white}
    .fil4 {fill:black;fill-rule:nonzero}
   ]]>
  </style>
 </defs>
 
  
  <rect class="fil0" x="4.8361e-5" y="1.6882e-5" width="451.56" height="450.43"/>
  <path class="fil1 str0" d="m28.873 4.731h395.53c10.186 0.7446 21.728 11.153 22.287 23.416v394.4c0.046626 9.7171-11.106 22.782-23.698 23.416h-394.96c-12.97 0.59404-23.008-14.482-23.416-23.698l0.56414-393.83c-0.16835-8.5141 10.986-24.283 23.698-23.698z"/>
  <path class="fil2" d="m370.59 15.04v0.029542h-290.96v0.029186h-46.674c-11.075-0.48477-17.397 7.0811-16.98 19.188v382.72c0.043779 8.1621 3.5108 17.959 14.773 18.158h48.322 2.1484l289.37-0.058728v0.029542h50.441c11.262-0.19861 14.759-9.9954 14.803-18.158v-382.75c0.41608-12.106-5.9052-19.672-16.98-19.188h-48.263zm0 62.624v294.67l-289.37 0.20608v-294.82l289.37-0.058728z"/>
  <path class="fil3" d="m101.42 160.58h248.54c0-13.019-8.1646-24.556-20.795-27.168h-206.95c-13.124 2.4424-20.796 14.181-20.796 27.168z"/>
  <polygon class="fil3" points="200.07 217.06 215.83 217.06 215.83 201.74 231.66 201.82 231.68 217.06 247.42 217.06 247.42 233.55 231.68 233.55 231.64 248.74 215.81 248.66 215.83 233.55 200.07 233.55"/>
  <path class="fil3" d="m101.35 290.04h248.54c0 13.019-8.1642 24.556-20.795 27.168h-206.95c-13.124-2.4424-20.795-14.181-20.795-27.168z"/>
  <path class="fil3" d="m266.38 167.74v114.98l17.451 0.029542v-49.44h21.924l24.132 49.381h20.423l-25.632-50.499c27.964-10.949 31.492-54.417-6.5038-64.331l-51.795-0.11781zm17.451 16.01h30.724c21.16 6.3864 17.767 26.796 0.94178 34.049h-31.665v-34.049z"/>
  <path class="fil4" d="m104.83 282.67v-114.76h43.071c8.7636 0 15.791 1.1756 21.081 3.4735 5.3172 2.3246 9.4584 5.9048 12.451 10.741 2.9926 4.8093 4.5156 9.8591 4.5156 15.15 0 4.8894-1.3361 9.5118-4.0081 13.84-2.6449 4.3284-6.6796 7.8286-12.05 10.5 6.947 2.0306 12.264 5.504 16.004 10.394 3.7408 4.916 5.6112 10.714 5.6112 17.394 0 5.3702-1.1489 10.367-3.4201 14.989s-5.0766 8.176-8.4166 10.687c-3.3396 2.5118-7.5346 4.3822-12.558 5.6646-5.0232 1.2824-11.195 1.9238-18.516 1.9238h-43.766zm15.203-67.598h24.822c6.7063 0 11.187-0.45736 14.126-1.3358 3.8458-1.15 6.7601-2.6901 8.7106-5.362s2.9389-5.3001 2.9389-9.3078c0-3.7942-0.90512-6.4515-2.7253-9.3345-1.8394-2.914-4.4612-4.8936-7.8286-5.9582-3.3916-1.072-8.8632-1.6031-17.118-1.6031h-22.925v32.901zm0 53.339h28.563c4.916 0 8.3657-0.5346 10.34-0.89017 3.5009-0.63106 6.4084-1.3386 8.764-2.7969 2.3438-1.4508 3.9365-3.2168 5.4421-6.0034 1.5106-2.7951 1.9149-5.6556 1.9149-9.316 0-4.275-1.0902-7.2826-3.2863-10.457-2.184-3.156-5.235-5.0235-9.1377-6.297-3.8707-1.2632-8.7753-1.8971-16.068-1.8971h-26.532v37.657z"/>
 
</svg>
