<?xml version="1.0" encoding="UTF-8"?>
<!DOCTYPE svg PUBLIC "-//W3C//DTD SVG 1.1//EN" "http://www.w3.org/Graphics/SVG/1.1/DTD/svg11.dtd">
<!-- Creator: CorelDRAW -->
<svg xmlns="http://www.w3.org/2000/svg" xml:space="preserve" width="1200" height="1200" shape-rendering="geometricPrecision" text-rendering="geometricPrecision" image-rendering="optimizeQuality" fill-rule="evenodd" clip-rule="evenodd"
viewBox="0 0 524.332 523.818"
 xmlns:xlink="http://www.w3.org/1999/xlink">
 <g id="Ebene_x0020_1">
  <metadata id="CorelCorpID_0Corel-Layer"/>
  <path fill="#003B80" d="M53.3388 0l418.178 0c28.7491,0 52.2709,23.5219 52.2709,52.2709l0 418.178c0,28.7491 -23.5219,52.2709 -52.2709,52.2709l-418.178 0c-28.7491,0 -52.2709,-23.5219 -52.2709,-52.2709l0 -418.178c0,-28.7491 23.5219,-52.2709 52.2709,-52.2709z"/>
  <path fill="white" fill-rule="nonzero" d="M127.765 495.951c-15.5028,0 -29.5425,-6.28727 -39.7053,-16.45 -10.1627,-10.1627 -16.45,-24.203 -16.45,-39.7058 0,-15.5028 6.28727,-29.5431 16.45,-39.7053 10.1627,-10.1627 24.2024,-16.45 39.7053,-16.45 15.5039,0 29.5431,6.28727 39.7058,16.45 10.1627,10.1622 16.45,24.2024 16.45,39.7053 0,15.5039 -6.28727,29.5431 -16.45,39.7058 -10.1627,10.1627 -24.2019,16.45 -39.7058,16.45zm-21.2261 -34.9292c5.4321,5.4321 12.9378,8.79319 21.2261,8.79319 8.28876,0 15.7945,-3.36109 21.2266,-8.79319 5.4321,-5.4321 8.79319,-12.9378 8.79319,-21.2266 0,-8.28876 -3.36109,-15.794 -8.79319,-21.2261 -5.4321,-5.4321 -12.9378,-8.79319 -21.2266,-8.79319 -8.28824,0 -15.794,3.36109 -21.2261,8.79319 -5.4321,5.4321 -8.79319,12.9373 -8.79319,21.2261 0,8.28824 3.36109,15.7945 8.79319,21.2266z"/>
  <path fill="white" fill-rule="nonzero" d="M382.068 495.951c-15.5028,0 -29.5425,-6.28727 -39.7053,-16.45 -10.1627,-10.1627 -16.45,-24.203 -16.45,-39.7058 0,-15.5028 6.28727,-29.5431 16.45,-39.7053 10.1627,-10.1627 24.2024,-16.45 39.7053,-16.45 15.5039,0 29.5431,6.28727 39.7058,16.45 10.1627,10.1622 16.45,24.2024 16.45,39.7053 0,15.5039 -6.28727,29.5431 -16.45,39.7058 -10.1627,10.1627 -24.2019,16.45 -39.7058,16.45zm-21.2261 -34.9292c5.4321,5.4321 12.9378,8.79319 21.2261,8.79319 8.28876,0 15.7945,-3.36109 21.2266,-8.79319 5.4321,-5.4321 8.79319,-12.9378 8.79319,-21.2266 0,-8.28876 -3.36109,-15.794 -8.79319,-21.2261 -5.4321,-5.4321 -12.9378,-8.79319 -21.2266,-8.79319 -8.28824,0 -15.794,3.36109 -21.2261,8.79319 -5.4321,5.4321 -8.79319,12.9373 -8.79319,21.2261 0,8.28824 3.36109,15.7945 8.79319,21.2266z"/>
  <path fill="white" d="M162.846 334.754l258.629 0c-1.42702,-4.2701 -2.75003,-8.67139 -4.08924,-13.1276 -7.67718,-21.7707 -15.4427,-46.1551 -37.0514,-50.1346 -20.4112,-3.75888 -39.8542,-5.36101 -58.6335,-5.75776 -28.5499,-0.603741 -51.7137,1.55405 -59.751,3.13945 -20.0855,3.96326 -33.8618,17.1321 -48.3171,30.9502 -4.36,4.16817 -8.77855,8.39226 -13.7705,12.7544 -0.320427,0.280178 -0.653399,0.53631 -0.996304,0.769966 -9.37654,7.0771 -19.1843,13.2964 -29.3889,18.3265 -2.1902,1.07942 -4.40078,2.10708 -6.63122,3.07934zm-115.284 97.7444c-18.5393,-10.8161 -25.3806,-27.2933 -24.1251,-46.6721 2.84098,-43.8499 44.6633,-49.0332 106.753,-62.2308 0.578651,-0.239406 1.18762,-0.429675 1.82272,-0.564014 9.79629,-2.07781 19.234,-5.4964 28.2859,-9.95833 9.12146,-4.49643 17.8132,-9.99544 26.0602,-16.2153 4.30146,-3.76672 8.66878,-7.94168 12.9781,-12.0612 16.6998,-15.9633 32.6146,-31.1776 58.6335,-36.3112 8.80051,-1.73595 33.8032,-4.10648 64.1366,-3.46459 19.7954,0.418176 41.9624,2.11022 63.5324,6.08289 45.647,8.40533 41.0664,54.5353 73.6366,77.7227 9.45547,6.73158 13.9686,10.7806 22.6913,18.1394 39.9358,33.6898 19.5011,100.554 -21.6003,99.3507l-0.328268 -0.0026136c0.17877,-2.14942 0.271291,-4.32341 0.271291,-6.51884 0,-21.4273 -8.68917,-40.8317 -22.7357,-54.8772 -14.0465,-14.0465 -33.4504,-22.7357 -54.8782,-22.7357 -21.4273,0 -40.8317,8.68917 -54.8772,22.7357 -14.0465,14.0455 -22.7357,33.4499 -22.7357,54.8772 0,1.45734 0.0412948,2.90528 0.120748,4.34275l-100.085 0.0799761c0.082067,-1.46361 0.125453,-2.93821 0.125453,-4.42273 0,-21.4273 -8.68917,-40.8317 -22.7357,-54.8772 -14.0465,-14.0465 -33.4504,-22.7357 -54.8782,-22.7357 -21.4273,0 -40.8317,8.68917 -54.8772,22.7357 -12.4925,12.4914 -20.7467,29.2221 -22.4205,47.844l-2.77041 -0.263451z"/>
  <path fill="white" d="M380.031 47.2528c0.996304,-0.0355449 0.14793,-0.0533174 0.772057,-0.0533174l38.6907 0c23.8851,0 38.9808,15.8734 45.4149,36.1858 1.21741,3.84408 2.10447,7.8847 2.66169,12.0246l56.7616 -0.102976 0 18.7458 -56.4657 0.102453c-0.509129,5.00556 -1.49393,9.89665 -2.95389,14.5049 -6.42945,20.2935 -21.5162,36.144 -45.4186,36.144l-38.6907 0c-0.650786,0 0.356495,-0.0198633 -1.0423,-0.0611582l-1.02923 -0.029795c-6.94903,-0.381063 -12.3268,-6.13986 -12.3215,-13.0168l-0.0318859 0 0 -9.26782 -52.9144 0c-5.19636,0 -9.40895,-4.2126 -9.40895,-9.40895 0,-5.19636 4.2126,-9.40895 9.40895,-9.40895l52.9144 0 0 -33.0887 -54.1605 0c-5.19636,0 -9.40895,-4.2126 -9.40895,-9.40895 0,-5.19636 4.2126,-9.40895 9.40895,-9.40895l54.1605 0 0 -11.3969c0,-7.21719 5.8508,-13.068 13.068,-13.068 0.19602,0 0.390994,0.00470448 0.584923,0.0135907z"/>
  <polygon fill="red" fill-rule="nonzero" points="27.5844,1.09823 257.393,229.85 492.982,1.09823 522.245,1.09823 522.245,27.4653 285.737,258.063 522.245,493.483 522.245,523.818 496.031,523.818 257.564,286.448 27.1882,523.818 -0.00052272,523.818 -0.00052272,494.4 229.221,258.234 -0.00052272,30.0684 -0.00052272,1.09823 "/>
 </g>
</svg>
