<?xml version="1.0" encoding="UTF-8"?>
<!DOCTYPE svg PUBLIC "-//W3C//DTD SVG 1.1//EN" "http://www.w3.org/Graphics/SVG/1.1/DTD/svg11.dtd">
<!-- Creator: CorelDRAW -->
<svg width="100" height="100.179" style="shape-rendering:geometricPrecision; text-rendering:geometricPrecision; image-rendering:optimizeQuality; fill-rule:evenodd; clip-rule:evenodd"
viewBox="0 0 43.613 43.6911"
 xmlns:xlink="http://www.w3.org/1999/xlink">
 
 <g id="Ebene_x0020_1">
  <path class="bg-fill"  d="M39.2425 0l-34.8823 0c-2.39811,0 -4.36019,1.96605 -4.36019,4.36902l0 34.953c0,2.40296 1.96208,4.36902 4.36019,4.36902l34.8823 0c2.39811,0 4.36024,-1.96605 4.36024,-4.36902l0 -34.953c0,-2.40296 -1.96212,-4.36902 -4.36024,-4.36902z"/>
  <path class="fg-fill"  d="M31.1974 3.338c0.0832752,-0.00297099 0.0123646,-0.00445649 0.0645317,-0.00445649l3.23392 0c1.99642,0 3.25817,1.32677 3.79597,3.02456 0.101756,0.321304 0.1759,0.659036 0.222475,1.00507l5.09875 -0.00974311 0 1.56685 -5.07402 0.00969941c-0.0425551,0.418342 -0.124869,0.827203 -0.246898,1.21238 -0.5374,1.69622 -1.79841,3.02106 -3.79627,3.02106l-3.23392 0c-0.0543954,0 0.0297973,-0.00166026 -0.08712,-0.00511185l-0.0860277 -0.00249039c-0.580829,-0.0318508 -1.03032,-0.513195 -1.02989,-1.08799l-0.00266515 0 0 -0.774642 -4.4228 0c-0.434333,0 -0.786439,-0.352106 -0.786439,-0.786439 0,-0.434333 0.352106,-0.786439 0.786439,-0.786439l4.4228 0 0 -2.76569 -4.52696 0c-0.434333,0 -0.786439,-0.352106 -0.786439,-0.786439 0,-0.434333 0.352106,-0.786439 0.786439,-0.786439l4.52696 0 0 -0.952596c0,-0.603242 0.489034,-1.09228 1.09228,-1.09228 0.0163841,0 0.0326809,0.000393219 0.0488903,0.00113597z"/>
  <path class="fg-fill" d="M21.4573 32.4083l4.05313 -8.4277 -10.3892 0.0484971 6.33608 8.3792zm4.80833 -9.998l1.18765 -2.46951 -2.34162 0.337863c-0.429221,0.0610364 -0.826766,-0.237417 -0.887802,-0.666638 -0.0610364,-0.429221 0.237417,-0.826766 0.666638,-0.887802l6.1053 -0.880855c0.429221,-0.0610364 0.826766,0.237417 0.887802,0.666638 0.0610364,0.429221 -0.237417,0.826766 -0.666638,0.887802l-1.89589 0.27355 -1.59695 3.32048 3.5402 4.77264c0.925333,-0.457664 1.96732,-0.71496 3.06934,-0.71496 1.9145,0 3.64812,0.776346 4.90301,2.03124 1.25489,1.25489 2.03124,2.98851 2.03124,4.90301 0,1.9145 -0.776346,3.64807 -2.03124,4.90301 -1.25489,1.25489 -2.98851,2.03124 -4.90301,2.03124 -1.91445,0 -3.64807,-0.776346 -4.90301,-2.03124 -1.10713,-1.10718 -1.84162,-2.5869 -1.9993,-4.23471l-5.85652 0c-0.272283,0 -0.512234,-0.13837 -0.6534,-0.348611l-7.99817 -10.5773c-0.0360888,-0.047798 -0.0658424,-0.0983486 -0.0894793,-0.150778l-0.927911 3.91149c1.00044,0.347082 1.89693,0.916726 2.63003,1.64982 1.25489,1.25494 2.03124,2.98851 2.03124,4.90301 0,1.9145 -0.776346,3.64812 -2.03124,4.90301 -1.25489,1.25489 -2.98851,2.03124 -4.90301,2.03124 -1.9145,0 -3.64807,-0.776346 -4.90301,-2.03124 -1.25489,-1.25489 -2.03124,-2.98851 -2.03124,-4.90301 0,-1.91445 0.776346,-3.64807 2.03124,-4.90301 1.25494,-1.25489 2.98851,-2.03124 4.90301,-2.03124 0.249389,0 0.495719,0.0133258 0.738335,0.0390161l2.34036 -9.86535c0.0910522,-0.384438 0.450105,-0.635399 0.832358,-0.602063l4.53391 0.00703426c0.432629,0 0.783381,0.350752 0.783381,0.783381 0,0.432629 -0.350752,0.783381 -0.783381,0.783381l-3.97947 -0.00616044 -1.0436 4.39903c0.00725272,-0.00589829 0.0145928,-0.0116655 0.0221077,-0.0173453 0.156021,-0.117791 0.341751,-0.168473 0.522632,-0.156938l12.6661 -0.0590703zm0.690625 2.17822l-4.08345 8.49066 4.5852 0c0.202421,-1.55282 0.918692,-2.94447 1.97265,-3.99843 0.163186,-0.163142 0.334499,-0.318158 0.513195,-0.46448l-2.98759 -4.02775zm-15.416 4.4391l-1.20714 5.08848c-0.100053,0.422449 -0.523725,0.683765 -0.946173,0.583713 -0.422449,-0.100053 -0.683765,-0.523725 -0.583713,-0.946173l1.20102 -5.06261c-0.122728,-0.00838868 -0.246549,-0.0127578 -0.371418,-0.0127578 -1.48025,0 -2.82065,0.600271 -3.7909,1.57047 -0.970204,0.970247 -1.57047,2.31069 -1.57047,3.7909 0,1.48025 0.600271,2.82069 1.57047,3.7909 0.970247,0.970204 2.31065,1.57047 3.7909,1.57047 1.48025,0 2.82069,-0.600271 3.7909,-1.57047 0.970204,-0.970204 1.57047,-2.31065 1.57047,-3.7909 0,-1.48025 -0.600271,-2.82065 -1.57047,-3.7909 -0.529885,-0.529885 -1.17022,-0.94945 -1.88348,-1.22112zm20.6811 0.0271758l3.22213 4.34385c0.257865,0.347781 0.184988,0.838868 -0.162793,1.09673 -0.140554,0.104203 -0.304483,0.15436 -0.46697,0.154229l0 0.0024467 -5.80016 0c0.150909,1.21317 0.707271,2.30068 1.52914,3.1226 0.970247,0.970204 2.31069,1.57047 3.7909,1.57047 1.48025,0 2.82069,-0.600271 3.7909,-1.57047 0.970204,-0.970247 1.57047,-2.31065 1.57047,-3.7909 0,-1.48025 -0.600271,-2.82069 -1.57047,-3.7909 -0.970204,-0.970204 -2.31065,-1.57047 -3.7909,-1.57047 -0.750001,0 -1.464,0.154186 -2.11224,0.43241zm-1.33922 0.826504c-0.117573,0.0990039 -0.23082,0.202945 -0.339436,0.311561 -0.768132,0.768132 -1.30431,1.7684 -1.49437,2.88632l4.20588 0 -2.37207 -3.19788z"/>
 </g>
</svg>


