<?xml version="1.0" encoding="UTF-8"?>
<!DOCTYPE svg PUBLIC "-//W3C//DTD SVG 1.1//EN" "http://www.w3.org/Graphics/SVG/1.1/DTD/svg11.dtd">
<!-- Creator: CorelDRAW -->
<svg width="524px" height="524px" viewBox="0 0 524 524" version="1.1" xmlns="http://www.w3.org/2000/svg" xmlns:xlink="http://www.w3.org/1999/xlink">
    <g id="Page-1" stroke="none" stroke-width="1" fill="none" fill-rule="evenodd">
        <path d="M52.3641,0 L471.2871,0 C500.0874,0 523.6512,23.5638 523.6512,52.3641 L523.6512,471.2871 C523.6512,500.0874 500.0874,523.6512 471.2871,523.6512 L52.3641,523.6512 C23.5638,523.6512 0,500.0874 0,471.2871 L0,52.3641 C0,23.5638 23.5638,0 52.3641,0 Z" id="Path" fill="#003B80" class="bg-fill"></path>
        <path d="M126.923,496.835 C111.3925,496.835 97.3278,490.53652 87.1469,480.3557 C76.9661,470.1749 70.6676,456.1096 70.6676,440.5791 C70.6676,425.0486 76.96608,410.9834 87.1469,400.803 C97.3277,390.6222 111.3925,384.3237 126.923,384.3237 C142.4545,384.3237 156.5187,390.62218 166.6996,400.803 C176.8804,410.9833 183.1789,425.0486 183.1789,440.5791 C183.1789,456.1106 176.88042,470.1748 166.6996,480.3557 C156.5188,490.5365 142.4545,496.835 126.923,496.835 Z M105.6591,461.8436 C111.10089,467.28539 118.62,470.65247 126.923,470.65247 C135.22654,470.65247 142.7457,467.28539 148.1874,461.8436 C153.62919,456.40181 156.99627,448.8827 156.99627,440.5792 C156.99627,432.27566 153.62919,424.7571 148.1874,419.3153 C142.74561,413.87351 135.2265,410.50643 126.923,410.50643 C118.61998,410.50643 111.1009,413.87351 105.6591,419.3153 C100.21731,424.75709 96.85023,432.2757 96.85023,440.5792 C96.85023,448.88222 100.21731,456.4019 105.6591,461.8436 Z" id="Shape" fill="#FFFFFF" class="fg-fill" fill-rule="nonzero"></path>
        <path d="M381.68,496.835 C366.1495,496.835 352.0848,490.53652 341.9039,480.3557 C331.7231,470.1749 325.4246,456.1096 325.4246,440.5791 C325.4246,425.0486 331.72308,410.9834 341.9039,400.803 C352.0847,390.6222 366.1495,384.3237 381.68,384.3237 C397.2115,384.3237 411.2757,390.62218 421.4566,400.803 C431.6374,410.9833 437.9359,425.0486 437.9359,440.5791 C437.9359,456.1106 431.63742,470.1748 421.4566,480.3557 C411.2758,490.5365 397.2115,496.835 381.68,496.835 L381.68,496.835 Z M360.4161,461.8436 C365.85789,467.28539 373.377,470.65247 381.68,470.65247 C389.98354,470.65247 397.5027,467.28539 402.9444,461.8436 C408.38619,456.40181 411.75327,448.8827 411.75327,440.5792 C411.75327,432.27566 408.38619,424.7571 402.9444,419.3153 C397.50261,413.87351 389.9835,410.50643 381.68,410.50643 C373.37698,410.50643 365.8579,413.87351 360.4161,419.3153 C354.97431,424.75709 351.60723,432.2757 351.60723,440.5792 C351.60723,448.88222 354.97431,456.4019 360.4161,461.8436 Z" id="Shape" fill="#FFFFFF" class="fg-fill" fill-rule="nonzero"></path>
        <path d="M162.06665,335.351 L421.157,335.351 C419.72743,331.07329 418.40207,326.66414 417.06047,322.2 C409.3696,300.3904 401.59027,275.9626 379.94297,271.9761 C359.49547,268.21052 340.01767,266.60553 321.20497,266.20808 C292.60417,265.603262 269.39907,267.7649 261.34737,269.35313 C241.22607,273.32346 227.42517,286.51583 212.94417,300.35853 C208.57639,304.53413 204.14997,308.76576 199.14907,313.13563 C198.828072,313.416307 198.494506,313.672897 198.15099,313.906969 C188.75773,320.996689 178.93249,327.227069 168.70969,332.266169 C166.51559,333.347509 164.30107,334.377009 162.06665,335.351 L162.06665,335.351 Z M46.577,433.2697 C28.0046,422.4343 21.1511,405.9278 22.4089,386.5144 C25.25495,342.5863 67.1518,337.3938 129.3519,324.1726 C129.931582,323.932768 130.54164,323.742158 131.17787,323.60758 C140.99162,321.52606 150.44617,318.10138 159.51427,313.63149 C168.65199,309.12704 177.35927,303.61819 185.62097,297.38729 C189.9301,293.61386 194.30521,289.43145 198.62217,285.30459 C215.35177,269.31279 231.29487,254.07139 257.36017,248.92859 C266.17637,247.18954 291.22367,244.81478 321.61117,245.45783 C341.44187,245.876751 363.64837,247.57181 385.25687,251.55156 C430.98527,259.97188 426.39647,306.18416 459.02467,329.41276 C468.497,336.15635 473.01817,340.21256 481.75637,347.58456 C521.76337,381.33446 501.29227,448.31756 460.11747,447.11236 L459.788617,447.109742 C459.967706,444.956482 460.060392,442.778622 460.060392,440.579282 C460.060392,419.113782 451.355732,399.674782 437.284192,385.604282 C423.212592,371.532682 403.774192,362.828082 382.308092,362.828082 C360.842592,362.828082 341.403592,371.532742 327.333092,385.604282 C313.261492,399.674782 304.556892,419.113782 304.556892,440.579282 C304.556892,442.039222 304.59826,443.489742 304.677856,444.929782 L204.413856,445.0099 C204.496069,443.54368 204.539532,442.06645 204.539532,440.57928 C204.539532,419.11378 195.834872,399.67478 181.763332,385.60428 C167.691732,371.53268 148.253332,362.82808 126.787232,362.82808 C105.321732,362.82808 85.882732,371.53274 71.812232,385.60428 C59.297532,398.11798 51.028532,414.87848 49.351732,433.53358 L46.576382,433.26966 L46.577,433.2697 Z" id="Shape" fill="#FFFFFF" class="fg-fill"></path>
        <text id="H" font-family="ArialMT, Arial" font-size="150" font-weight="normal" fill="#FFFFFF">
            <tspan x="308" y="158">H</tspan>
        </text>
        <text id="2" font-family="ArialMT, Arial" font-size="100" font-weight="normal" fill="#FFFFFF">
            <tspan x="410" y="193">2</tspan>
        </text>
    </g>
</svg>