<?xml version="1.0" encoding="UTF-8"?>
<!DOCTYPE svg PUBLIC "-//W3C//DTD SVG 1.1//EN" "http://www.w3.org/Graphics/SVG/1.1/DTD/svg11.dtd">
<!-- Creator: CorelDRAW -->
<svg xmlns="http://www.w3.org/2000/svg" xml:space="preserve" width="1500" height="1500" shape-rendering="geometricPrecision" text-rendering="geometricPrecision" image-rendering="optimizeQuality" fill-rule="evenodd" clip-rule="evenodd"
viewBox="0 0 1500 1500"
 xmlns:xlink="http://www.w3.org/1999/xlink">
 <g id="Ebene_x0020_1">
  <metadata id="CorelCorpID_0Corel-Layer"/>
  <g id="_141589696">
   <path id="_141589648" fill="#009933" stroke="white" stroke-width="250" stroke-linecap="round" stroke-linejoin="round" d="M249.998 125l1000 0c68.7493,0 124.998,56.2485 124.998,124.998l0 1000c0,68.7493 -56.2485,124.998 -124.998,124.998l-1000 0c-68.7493,0 -124.998,-56.2485 -124.998,-124.998l0 -1000c0,-68.7493 56.2485,-124.998 124.998,-124.998z"/>
   <path id="_1" fill="#009933" d="M249.998 125l1000 0c68.7493,0 124.998,56.2485 124.998,124.998l0 1000c0,68.7493 -56.2485,124.998 -124.998,124.998l-1000 0c-68.7493,0 -124.998,-56.2485 -124.998,-124.998l0 -1000c0,-68.7493 56.2485,-124.998 124.998,-124.998z"/>
  </g>
  <path fill="white" fill-rule="nonzero" d="M504.331 581.947l0 81.2501 -306.519 0c3.39817,-30.6947 13.2764,-59.7952 29.9509,-87.3037 16.5691,-27.5085 49.3875,-63.9383 98.2432,-109.396 39.5104,-36.6418 63.6197,-61.6014 72.5409,-74.6646 12.0019,-18.0556 18.0556,-35.8991 18.0556,-53.5295 0,-19.4366 -5.20441,-34.4115 -15.7187,-44.9269 -10.5143,-10.5143 -24.9596,-15.7187 -43.4393,-15.7187 -18.2687,0 -32.713,5.52303 -43.5458,16.4625 -10.7274,11.0461 -16.9943,29.3137 -18.6928,54.8039l-87.0917 -8.70917c5.20441,-48.113 21.4537,-82.6311 48.8557,-103.66 27.402,-20.9231 61.6014,-31.4385 102.705,-31.4385 45.0323,0 80.3997,12.2139 106.103,36.4298 25.7023,24.3224 38.5535,54.4853 38.5535,90.5965 0,20.4979 -3.71792,40.0411 -11.0461,58.6273 -7.32813,18.5873 -19.0114,38.0228 -34.9421,58.3087 -10.6209,13.4884 -29.7388,32.925 -57.2474,58.2032 -27.614,25.2771 -45.1389,42.1648 -52.4671,50.4488 -7.32813,8.28397 -13.3818,16.3559 -17.949,24.2158l173.652 0zm230.579 81.2501l0 -91.7643 -186.716 0 0 -76.5774 197.974 -289.738 73.3913 0 0 289.42 56.609 0 0 76.896 -56.609 0 0 91.7643 -84.6494 0zm0 -168.66l0 -155.915 -104.829 155.915 104.829 0zm-57.6783 814.511l468.525 -1111.2 65.638 0 -469.694 1111.2 -64.4689 0zm341.256 -364.609l0 -81.1435 298.978 0 0 63.4065c-24.6399,24.3224 -49.705,59.1591 -75.3018,104.615 -25.4903,45.3521 -44.9269,93.6771 -58.3087,144.763 -13.3829,51.1937 -19.9673,96.8633 -19.7552,137.116l-84.3296 0c1.48649,-63.0879 14.4442,-127.345 39.0852,-192.876 24.5333,-65.6368 57.3528,-124.158 98.4552,-175.882l-198.823 0z"/>
 </g>
</svg>
