<svg height="480" width="480" xmlns="http://www.w3.org/2000/svg"><g fill-rule="evenodd"><path d="m30.856274 5.7720243h420.004816c10.81582.7906802 23.07189 11.8437647 23.66646 24.8647647v418.806511c.04967 10.31854-11.79351 24.19224-25.16434 24.86477h-419.405663c-9.523815-.58318-24.4313132-15.37852-24.8647639-25.16434l.5991509-418.207366c-1.0815617-6.302442 14.286068-25.2982414 25.16434-25.1643397z" fill="#fff" stroke="#000" stroke-width="2"/><path d="m393.71875 16.71875v.03125h-308.96875v.03125h-49.5625c-11.760613-.514916-18.473169 7.51921-18.03125 20.375v406.40625c.046553 8.6672 3.728171 19.07043 15.6875 19.28125h51.3125 2.28125l307.28125-.0625v.03125h53.5625c11.95933-.2108 15.6722-10.61405 15.71875-19.28125v-406.4375c.44191-12.855791-6.27063-20.88992-18.03125-20.375zm0 66.5v312.90625l-307.28125.21875v-313.0625z" fill="#154889"/><path d="m107.89619 171.26504h263.92134c0-13.82481-8.66977-26.07584-22.08249-28.8497h-219.75636c-13.93663 2.59355-22.08249 15.0584-22.08249 28.8497z"/><path d="m212.65107 231.23776h16.7354l.00001-16.26385 16.80387.08995.02731 16.1739h16.71369v17.51786h-16.71369l-.04727 16.12202-16.8054-.08079.02148-16.04123h-16.7354z"/><path d="m107.82108 308.73498h263.92134c0 13.82481-8.66977 26.07585-22.08249 28.8497h-219.75636c-13.93663-2.59354-22.08249-15.05839-22.08249-28.8497z"/><path d="m111.8125 178.8125v121.96875h18.46875v-47.34375h33.03125c49.48459-10.47198 39.82941-69.76276 1.03125-74.65625zm18.46875 18.0625h31.15625c19.98389 7.13591 22.85745 28.78974 1.59375 38.25h-32.75z"/><path d="m283.0625 178.875v122.09375l18.53125.03125v-52.5h23.28125l25.625 52.4375h21.6875l-27.21875-53.625c29.69516-11.62664 33.44049-57.78459-6.90625-68.3125zm18.53125 17h32.625c22.47001 6.78186 18.86658 28.45377 1 36.15625h-33.625z"/></g></svg>

